<svg id="Layer_1" data-name="Layer 1" xmlns="http://www.w3.org/2000/svg" viewBox="0 0 1198 1196"><defs><style>.cls-1{fill:#fff;}</style></defs><title>television</title><path d="M1,140V34c7.62,4.73,12.51,12.39,19.38,18,6.65,5.48,11.51,13,18.28,18.61,3.44,2.83,5.53,7.23,10.15,8.55l1,4.42C57.73,87.14,60.93,96,68.66,99.54c1.53,4.19,5.44,6.33,8.3,9.32C83.8,116,91.55,122.33,98,129.77s12.36,14.47,23.58,12.16c1.91-.4,4,0,6,0,5.93-.17,11.9.39,17.9-.58,2.25-11.43.31-22.65,1-32.87C134.89,97.13,124,86.6,113.23,75.9c-11.58-11.54-22.8-23.45-34.56-34.81-9.26-9-17.85-18.56-27.42-27.24C46.92,9.92,42.35,6,39,1H165c2.32,2.54,3.24,6.29,6.47,8,33.33,44.3,67.19,88.21,99.91,132.5H296.9c.15-12,.42-23.54-.43-35.13a4.46,4.46,0,0,0-.93-2.27c-6.92-8.88-13.62-18-20.92-26.51-6.19-7.23-11.59-15.07-17.53-22.47-4.4-5.46-8.55-11.48-12.62-17.27-6.37-9-13.35-17.9-20.61-26.42C221.47,8.64,218,5.55,218,1H361a28.34,28.34,0,0,0,2.5,7.49c4.83,8.8,9,18,14,26.66,3.11,5.34,3.7,12.18,8,14.94,4.87,9.18,7.48,17.72,14.53,28.53,7.9,19.15,21.08,40.14,31.54,62.92l17.57,1.7c1.09-14.9.28-29.41.58-43.78a29.28,29.28,0,0,1-3.64-4.81c-2.74-4.3-2.31-9.81-5.53-13.71-2.75-3.34-4.44-7.22-6.4-10.94-6-11.37-11.73-22.85-17.57-34.29Q409,20.77,401.34,5.83A6.29,6.29,0,0,1,401,1H546l37.8,140.72h16.14c1.8-1.86,1.42-3.72,1.58-5.53,1.06-12.8-.15-25.6.23-38.41.17-5.56-.27-11.6-2.34-16.65C597,75.22,597.3,68.83,594.56,63c-1.59-3.41-3.48-7.4-3.56-11.22-.25-11.36-6.12-21.22-7.78-32.13-1-6.33-4.48-12-4.22-18.63H750c-1.83,3.75-4,7.39-5.4,11.29-2,5.7-8,9.53-7.61,16.12-6.85,11.43-12.61,23.26-18.56,35-4.89,9.6-9.36,19.4-14.21,29-2.93,5.82-6.59,11.3-9.19,17.25-1.39,3.18-1.82,6.67-5.59,8.17-1.15,6.57-4.67,12.09-7.14,17.89,1.24,5,4.52,6.92,9.23,6.92H736.1c2.84,3.92-.68,6.21-1.72,8.9-3.1,8.08-4.89,16.61-8.18,24.56-3.09,7.49-4.66,15.4-7.7,22.89-2.84,7-4.4,14.43-7,21.49-4.47,11.93-7.7,24.26-11.9,36.27-2.65,7.59-5,15.29-8.11,22.76-2,4.75-4.91,9.89-2.47,16,1.8.08,3.59.22,5.38.23q20.74,0,41.49,0c5.67,0,11.33,0,17-.07,3.72,0,6-1.59,5.87-5.73q-.26-10.47-.27-20.94c0-49.65.18-99.3.11-148.95,0-39.68-.36-79.36-.55-119H868c-.82,5-3.71,9.07-6,13.42C852,33.25,842.12,52.14,832.13,71c-7,13.27-14.41,26.36-21.23,39.73-4.55,8.94-9.29,17.75-14.31,26.42-1.29,2.23-2.08,4.13.39,6.5,21.91-1.3,44.13-.21,66.48-.92,5.76-15.76,14.72-29.31,22.38-43.47,7-13,13.09-26.5,20.92-39.08A22,22,0,0,0,910.12,49c.43-16-.52-32-.12-47.95h109a3.6,3.6,0,0,1-1.14,3.09c-3.49,4.15-7,8.3-10.2,12.67-13.17,18-26.1,36.15-39.36,54.07-10.75,14.52-22.34,28.44-32.58,43.3-5.83,8.48-13.18,16-17.52,26a2.42,2.42,0,0,0,2.25,2.37c20.81,1.25,41.59.74,62.35-.33a13.08,13.08,0,0,1,4.28-8.88,36.54,36.54,0,0,0,5.12-6.12c7.12-11,15.41-21.1,23.18-31.61,5.38-7.27,11-14.42,16.19-21.77,3.37-4.79,7.07-9.4,10.48-14.18a100.72,100.72,0,0,1,9.44-12,23.68,23.68,0,0,0,6.62-18.16C1057.65,20,1058,10.48,1058,1h105c-4.73,4.77-9.48,9.52-14.18,14.33-7.51,7.67-14.93,15.43-22.47,23.07q-13,13.24-26.26,26.32c-5.76,5.69-12.15,10.81-17.46,16.88a274.8,274.8,0,0,1-21.59,22c-2.33,2.13-4.55,4.71-4.61,8-.2,9.79-.07,19.58-.07,28.86a5.57,5.57,0,0,0,4.36,2.39c7.74.27,15.49.63,23.24.72a15.24,15.24,0,0,0,11.28-4.41c8.47-8.39,17.16-16.57,25.31-25.26,4-4.25,9.74-7,11.07-12,17.27-14.6,30.86-31.41,47.44-45.5l2.34-5.25a18.6,18.6,0,0,0,8.67-6.84c2.37-3.17,5-6.51,8.93-8.28V163a4.43,4.43,0,0,0-3.93,1.74c-4.21,4.48-9.43,7.56-15.23,10.85-.14,4.31-4.89,4.21-7.55,6.49-5.15,4.42-10.3,9.1-15.93,12.65-12.83,8.1-23.65,18.72-36.13,27.18-11.87,8.05-22.16,18.32-34.9,25.11a11,11,0,0,0-5.44,6.37c-7.91,3.85-13.59,10.34-20.76,14.77a6.72,6.72,0,0,0-2.84,6.09c.17,5.16,0,10.32.24,15.48.08,2.13.39,4.38,3.25,6h28.28a6.77,6.77,0,0,0,4.14-1.54c5-3.73,10-7.37,14.82-11.25,8.09-6.5,16.86-12.07,24.8-18.8,7.18-6.08,14.78-11.75,22.41-17.18,6.55-4.66,13.12-9.24,19.34-14.36,8.1-6.69,16.33-13.23,25.43-18.56V358c-2.11-.44-3.85.35-5.61,1.46a151.2,151.2,0,0,1-16.14,8.55c-21,9.95-41.48,21-62.31,31.39-15.53,7.71-30.75,16.08-46.29,23.8-4.15,2.06-9.35,3-12,8.11v12.4c2.26,2.33,5,2.05,7.64,2.07,8.33.07,16.69-.45,25,.19,10,.77,18.3-3.12,26.65-7.75,8.69-4.81,17.66-9.12,26.52-13.63,11.5-5.84,23.14-11.44,34.48-17.59,7.25-3.93,14.8-7.18,22.08-11V542c-9.77,4.63-20.36,7-30.71,9.36-10,2.3-20,5-29.94,7.55-12.72,3.32-25.47,6.84-38.17,10.35-6,1.64-11.74,4.73-18.21,4.21l-3,2.71c-7.73-.41-14.32,3.45-21.57,4.59a41.66,41.66,0,0,0-.31,16.64,23.17,23.17,0,0,0,2.61,1.2,7.93,7.93,0,0,0,2.46.36c22.06-.88,44.61,3.24,65.93-5.33,8.11-3.25,16.89-3.07,24.88-6.34,3.51-1.44,6.86-3.56,10.8-3.52,5.43.05,10.38-2.33,15.33-3.77,6.6-1.92,13.45-2.73,19.92-5V747c-7-1.87-12.24-7-18.78-9.64-3.89-1.6-8-2.84-11.53-5.09-8.75-5.63-18.22-9.88-27.47-14.47-9.65-4.8-18.91-10.34-28.7-14.87-6.44-3-12.62-6.53-19-9.73-5.92-3-11.91-5.83-17.85-8.76s-12-6-19-9.41c-1.59,20,.88,39.24-1.47,58.83-5-2.4-9.7-3.12-13.89-4.83-19.62-8-40.3-12.74-60.06-20.35-13.06-5-26.63-8.72-40-13.06-7.4-2.41-15.1-4.09-22-7.66-4.83-2.5-9.51-1.55-14.12-1.68-1.17,2.08-.87,3.75-.87,5.4.1,18.31.28,36.63.18,54.94,0,8,.49,8.87,8.58,8.94,1,0,2,0,3,0q118,0,236,0c15.64,0,31.28,0,46.92.49V865a31.73,31.73,0,0,1-4.2-1.5q-13.75-7.23-27.45-14.6-18.86-10.15-37.79-20.19c-8.86-4.69-17.68-9.51-26.64-14-14.42-7.3-28.6-15-42.78-22.76-1.1-.6-2.16-.82-3.76.49v66.16c5.83,5,12.82,7.24,19.15,10.77,14.39,8,29.21,15.26,43.65,23.19,4.15,2.27,8.4,4.54,12.52,6.81,5.29,2.9,10.47,6.8,17.33,6.69,16.65-.29,33.31,0,50,0v110c-6.33-3.31-11.65-8.09-17.31-12.31-13.1-9.77-26.17-19.59-39.63-28.87-3.24-2.24-5.49-6-10-6.52-1.25-4.46-5.67-5.29-8.73-7.72-6.47-5.14-13-10.32-19.67-15.06-10.9-7.7-21.33-16-32.22-23.7-4.26-3-8-7.54-13.69-7.13a4.41,4.41,0,0,0-1.48,3.73q0,28,0,56a6.27,6.27,0,0,0,3.67,6,129.61,129.61,0,0,1,13.15,8.48c8.66,6,16.82,12.72,25.43,18.79,9.09,6.41,18,13.14,27.11,19.48,10.66,7.37,20.53,15.88,30.88,23.72,1.89,1.44,3.78,3.23,6.57,3.27,12,.18,23.91,1.62,35.91.9v104c-7.61-3.36-10.7-12-18.25-15.74a20.38,20.38,0,0,0-5.43-6.72,85.79,85.79,0,0,1-10.11-9.47c-11.29-13.14-24.44-24.43-36.37-36.94-9.25-9.69-19.38-18.59-28.4-28.54-5.53-6.09-11.7-9.35-20.38-8.7-7.34.54-14.86,1.66-22.33-.28-1.67,1-2.67,2.43-2.17,4.52a46.07,46.07,0,0,1,.54,15.91c-1.07,9.78.81,17.94,9.39,23.73a13.81,13.81,0,0,1,3.31,3c4.25,5.6,11.56,8.45,13.79,15.61,6.12,3.11,10.37,7.82,13.65,13.73,1.69.88,3.7,1,5.36,2.85,5.61,6.17,12.07,11.6,17.49,17.92,3.32,3.88,8,6.29,10.81,10.44,4.42,6.5,10.42,11.6,16,16.82s10.46,10.84,15.74,16.19A5.15,5.15,0,0,1,1163,1197H1036a4,4,0,0,0-.61-4.2c-9.28-12.6-18.52-25.24-28-37.66-10.13-13.27-20.42-26.43-30.49-39.75-7.78-10.3-15.89-20.36-23.55-30.74-7.27-9.84-16.18-18.54-21-29.94-8.18-2.41-16.59-.85-24.56-2.17-3.82,3.16-5.12,25.9-2.43,36.93,9.89,11.24,17.37,24.09,27.63,35.06.29,1.16.66,2.59,1,4.12,4.54,2.56,6.86,7.1,9.84,11,4.45,5.88,9.43,11.38,13.74,17.3,5.51,7.58,11.37,14.89,16.83,22.49,4,5.53,9.73,10.07,10.54,17.52H843c-1.28-6.16-7.43-10.3-7-14.58l-65.22-127.51c-1.54-.58-3.23-1.28-5-1.85-8.1-2.65-13.32,1-13.39,9.5-.06,8,.36,16-.23,24-.51,7,1.74,13,4.8,18.86q7.26,14,14.54,28c5.47,10.57,10.44,21.43,16.11,31.84s10.82,21.25,16.4,31.78H656c-.22-2.14,0-4.42-.74-6.4-2.76-7.88-5.36-15.75-6.74-24a62.88,62.88,0,0,0-3-11c-3-8.2-5.86-16.29-5.33-22.64-9.82-27.75-13.75-54.88-23.11-80.21-6.13.84-11.17.27-15.83,1.92-1.21,2-1.15,4-1.14,6,0,10.48.23,21,0,31.45a100.91,100.91,0,0,0,1.88,21.8c.54,2.82,2.26,5,2.75,7.9,1.09,6.3,2.89,12.48,4.54,18.68,2.56,9.58,5.05,19.18,7.91,28.67,1.71,5.7,2.66,11.57,4.3,17.24,1,3.57,2.22,6.89,1.51,10.61H452a19,19,0,0,1,1-4.33q8.35-16.92,16.91-33.73c5.7-11.18,11.59-22.27,17.27-33.46,2.38-4.68,3.93-9.83,6.7-14.24,6.89-11,10.9-23.43,18.21-34.16,3.53-5.18,4.45-11.73,8.55-16.66.16-2.49.32-4.93.49-7.43-2.06-1.1-4.06-.92-6-.92-14.5,0-29,.07-43.48,0-2.12,0-4.84.83-6.05-2.14,17.18-48.53,32.06-97.76,48.6-146.19-4.72-3.66-66-4-71.28-.4,0,14.15.2,28.78,0,43.41-.62,36.63,1.16,73.25.15,109.89-.66,24.29.5,48.63.16,72.93-.31,22.49-.21,45-.12,67.46H333c.38-6.47,5.56-11,7.17-17.29,1-1,3-1.36,3.57-3.48,3.23-11.53,10.9-20.87,15.79-31.59,5.07-11.14,11.86-21.35,17.23-32.35,6-12.31,12.23-24.6,19.06-36.44,3.71-6.43,6.06-13.5,10.26-19.62a2.65,2.65,0,0,0,0-3.23c-1.17-1.19-3.12-.72-4.86-.73-15.49-.07-31,.53-46.44-.3-10.31-.55-18.36.64-21,12.24-.06.28-.49.46-.65.74-3.69,6.68-7.44,13.34-11,20.08-2.62,4.93-4.61,10.24-7.62,14.91-5.7,8.86-9.23,18.74-13.78,27.37-6.92,5.12-7.86,12.54-8.16,19.27-.76,16.78-.41,33.61-.51,50.42H182c3.81-10.38,12.45-17.52,18-26.81,5.39-9,12.62-16.89,19.13-25.2,4-5.08,7.44-10.54,11.43-15.64,5.06-6.47,10.53-12.75,14.88-19.63,3.95-6.27,8.48-12.1,12.71-18.11,7.68-10.9,16.22-21.18,24.37-31.74,1.53-2,2.79-4.12,1.91-7.32H222.81c-6.39,5.74-10.66,13.73-16.12,20.7-3.94,5-7.52,10.89-11.52,15.66-9.58,11.43-17.3,24.18-26.84,35.61-5.54,6.64-9.94,14.28-15.57,20.94-6.63,7.84-10.39,16.4-9.39,27.1A129.7,129.7,0,0,1,143,1197H38a6.2,6.2,0,0,1,2.21-4.83c5-5.08,10.06-10.19,15.12-15.24,12-12,24.12-23.94,36.07-36,6.19-6.27,12.47-12.47,18.74-18.64,5.7-5.61,11-11.63,16.84-17.1,6.85-6.38,14-12.55,19.61-20.25-1.73-8.19-.49-16.37-.73-24.5-.1-3.21-.85-5.89-4.17-8.29-7.66,0-16,.22-24.27-.09-4.54-.16-7.74,1.44-10.94,4.55-8.29,8.06-16,16.71-24.51,24.54-7.44,6.82-14.21,14.38-21.42,21.46-4.43,4.34-8.38,9.31-12.82,13.37-12.59,11.51-24.2,24-36.38,35.86C8.22,1154.89,5.79,1159,1,1160V1032c7.36,1.57,10.36-5,14.85-8.37,12.71-9.48,25.65-18.66,38-28.65,6.63-5.38,13.85-10.17,20.57-15.38,9.15-7.11,18.24-14.54,27.51-21.37,11.93-8.78,23.54-18,35.69-26.56,2.47-1.74,5.1-3.16,6.4-6.6,2.79-7.38,1.74-14.66,1.18-21.63a5.5,5.5,0,0,0-4.72-2.36c-8.81-.14-17.63-.31-26.44-.29-3.46,0-6.37,1.75-9,3.81-3,2.29-5.89,4.66-8.86,6.95-10.2,7.89-20.94,15.14-30.87,23.3C56,942.48,45.85,949,36.69,956.74A189.42,189.42,0,0,1,16,972.24c-5,3.21-8.12,9.49-15,9.76V838c4-1.18,8.23-1.82,11.89-3.65,12.61-6.3,25-13.06,37.49-19.59,11.14-5.81,22.47-11.28,33.44-17.4,6-3.34,12.87-5.19,17.79-10.27,3.29-1.2,6.88-1,10-3,7.39-4.71,15.33-8.47,23-12.72,3.6-2,8.35-2.89,10.13-7.45,2.2-5.64,1.5-15.24-5.42-15.41-13-.32-25.91-.09-38.22-.09-6.25,5.38-13.21,8.3-19.76,11.49-9.79,4.78-19.37,9.94-29.1,14.79-6.52,3.26-12.57,7.62-19.26,10.12-5.51,2-10.17,5.4-15.49,7.51C11.79,794.61,7.19,799,1,800V652c3.09-.7,6.28-.09,9.4-1,11.26-3.2,22.68-5.89,33.83-9.43,5.09-1.62,10.32-2.44,15.44-3.81,14.35-3.82,28.54-8.18,43-11.56,5.07-1.18,10.22-2.43,15.24-4.14a127.46,127.46,0,0,1,15.17-4.14c4.53-.94,8.32-2.88,12.24-4.56.78-3.65.19-7,.07-10.26-.14-3.93-2.13-6-6-5.73-19.93,1.38-39.92-2.69-60,3-13.33,3.81-26.77,7.83-40.57,10.22A109.83,109.83,0,0,0,26,614.1C17.79,616.6,9.56,619,1,620V449c1-.05,2.14-.49,2.9-.11,7.77,3.89,15.47,7.91,23.19,11.89l.06-.16,63.23,32.44c17.89,9.4,36,18.42,54.07,27.51l1.71-1.16V463.46c3.1.44,5.21.32,7,1.06,8.7,3.66,18,5.49,26.79,8.87,15.43,5.9,32,8.65,46.71,16.59,4.39,2.38,9.33.53,13.44,2.4,7.44,3.37,15.26,5.52,22.89,8.24,9.15,3.26,18.42,6.2,27.71,9.07,1.72.53,3.82,1.67,5.9-.41.86-22.29.33-44.82.48-68h-6.17q-132.7,0-265.41,0c-8.15,0-16.31-.15-24.46-.24V330a8.62,8.62,0,0,1,2.88.38c12.11,6.43,24,13.24,36.29,19.33,16.06,8,31.64,16.82,47.49,25.16,15.11,8,30.08,16.18,45.3,23.89,3.55,1.79,7.32,5,12,2.56a9.71,9.71,0,0,0,1.58-5.25c-.73-18.14-.55-36.29,0-54.44.1-3.64-1.05-6.3-5.1-7.47-3.29-1-6.25-3-9.31-4.58-23.39-12.14-45.79-26.19-70.19-36.33C55.6,290.63,49,288.4,42,288.36c-13.65-.09-27.3-.24-40.95-.36V179c8,2.07,13.64,8.13,19.63,12.84,10.13,8,20.38,16,30.83,23.36,15,10.56,28.38,23.48,44.93,31.84.65.33,1,1.32,1.46,2a22.43,22.43,0,0,0,5.09,4.66q13.83,9.43,27,19.8c4.29,3.38,8.8,6.88,14.22,8.51,2.73-3.18,2.27-6.65,2.28-9.88.06-16-.07-32-.11-47.95,0-2.43-.34-5-2.51-6.21-7-3.88-12.05-10.2-19-14.29A116.18,116.18,0,0,1,111,194.26c-12.84-10.42-26.17-20.18-39.53-29.91-6.82-5-14-9.45-20.39-14.95s-12.64-9.62-21.67-9.15A194,194,0,0,1,1,140Zm149.29,2.9c48.47,46.52,95,94.78,143,141.41,3.89-3.62,5.44-52.7,3.35-64.17-26.43-26.85-51.5-52.34-77.43-78.7C211.47,139.24,156.2,139.88,150.29,142.9Zm906.37,7.3L912.3,292.75c1.43,3.46,3.68,2.9,5.57,2.91,19,0,38,0,57,.06,4.7,0,8.1-1.61,9.15-6.18a38.68,38.68,0,0,0,4.41-3.72c6.6-7.64,14.57-13.87,21.15-21.6,7.56-8.87,17.17-15.84,24.67-25,4.6-5.58,10.49-10.09,15.81-15.07,4.07-3.82,8.39-7.1,8.23-13.87-.46-18.64-.3-37.3-.41-56C1057.87,152.76,1058.05,151,1056.66,150.2Zm-833,750.91C209,910,201.94,925.76,187.77,933.84a1.83,1.83,0,0,0-.62.77c-4,7.57-11,12.5-16.7,18.48-6.75,7.13-14,14-21.25,20.71-3.16,2.92-6,7-5.89,12.09.31,18.82-.28,37.65.68,56.45.1,2,.23,4.13,2.17,4.11C170.28,1022.39,194,999,217.44,975.3s48-46.66,70.14-72.7C265.68,900.13,244.12,901.45,223.61,901.11Zm805.27,129c-32.29-31-62.23-62.38-94.13-92.41-.57-1.17-.07-3.31-1.38-4.19-11.06-4.69-15.7-16.43-25.58-21.45-3.29,1.81-3.49,4.36-3.47,7.14.14,18.14.28,36.28.26,54.42,0,4.06,2.28,6.43,5.24,8.39a19,19,0,0,1,3.58,2.56c7.05,7.41,14.4,14.54,21.5,21.92,6,6.26,13.2,11.68,19,18.07,8.67,9.62,18.8,17.7,27.14,27.56a6.3,6.3,0,0,0,4.72,2.39c19.74,1.14,39.49.22,59.24.52a3.38,3.38,0,0,0,3.19-2.2,5.27,5.27,0,0,0-1.53-4.94c-5.2-5.47-12.95-8.63-14.92-17ZM864.27,295.17c4.05-2.64,5.73-8,8.72-12.28,11.19-16,21.8-32.39,32.62-48.64,2.69-4,4.72-8.2,4.67-13.33-.23-23-.19-46-.4-68.93,0-2.72,1-5.65-.83-8.34-4.22-1.31-7.31-.82-10.06,3.5-7.36,11.61-15.23,22.89-23,34.27-7.41,10.91-14.81,21.82-22.35,32.63-8.19,11.76-15.93,23.82-23.93,35.7-8.63,12.82-17.49,25.48-26.36,38.14-1.54,2.18-2.7,4.09-1.36,7.28Zm-718.57-5.3c-1.36,5.13-1.29,5.85,1.51,8.71,4.09,4.16,9.6,6.2,14.32,9.44,20.26,13.92,40.29,28.19,61,41.48,10.62,6.82,21.2,13.78,31.65,20.82s21.16,14,31.42,21.45c2.89,2.11,6,4.61,10.72,5.72V333.42l-31-20.87c-5.7-3.85-11.68-7.36-17-11.65-9.19-7.35-18.85-12.82-31.13-12.65-17.15.25-34.3-.06-51.46.15C159.05,288.48,152.45,289.35,145.7,289.87Zm153,763.66c1.65-1.4,3.39-2.67,4.5-4.62,6.47-11.32,14.35-21.71,21.54-32.56,9.31-14.07,18.81-28,27.81-42.29,5.61-8.89,12.21-17.1,18-25.95,6.66-10.24,13.35-20.6,21-30.27,3.39-4.32,4.37-9.73,6.28-14.46-2.37-2.7-5.06-2.28-7.45-2.31q-24-.21-48-.16c-2.85,0-6,.23-7.72,2.76C327.36,914.35,320,925,313.24,936c-4.43,7.15-8.95,14.26-14,20.91-3.86,5.06-6.8,10.17-6.86,16.51-.15,17.66-.1,35.31-.12,53V1051C294.27,1053.47,296.08,1054,298.72,1053.53ZM935,883.54c3,.16,5.75,1.59,8.47,3.78a144.39,144.39,0,0,0,15.39,11c4.69,2.87,8.73,7.47,14.72,7.52,22.15.18,44.3.28,66.45.12,5.59,0,11.26,1.19,16.87-.45,2.34-5.59-1.56-8-5.07-10.5-11.38-8.06-23.43-15.11-34.69-23.4-10.49-7.73-21.65-14.57-32.67-21.56-8.62-5.46-16.39-12.1-25.38-17.09-6.38-3.54-11.91-8.57-17.95-12.73-7.42-5.12-15.13-9.83-22.43-15.11a21.78,21.78,0,0,0-9.84-4.33,5.88,5.88,0,0,0-4.59,3.53c.44,18.77.81,38.05,0,57.11C914.32,869.31,926.07,874,935,883.54ZM346,142.46c34.35,48.36,67.22,97.21,100.52,145.75,3.41-2.22,3.16-4.68,3.16-7,0-20.14,0-40.29.05-60.44a14,14,0,0,0-2.63-8.39Q435.55,195.79,424,179.13c-6.27-9-12.9-17.86-18.69-27.2a52.73,52.73,0,0,0-9.48-11.62c-14.71,0-29.19,0-43.68,0A8.25,8.25,0,0,0,346,142.46ZM145.63,850.33c3.26-2.89,5.92-2.16,8.08-3.81,7.54-5.76,15.52-10.92,23.28-16.37,7.52-5.27,15.1-10.5,22.67-15.71,16.82-11.58,33.76-23,50.63-34.45,11.85-8.08,23.64-16.25,35.5-24.31,2.11-1.43,3.4-3.07,3-5.73-3.06-2.52-6.46-.73-9.67-1-18.3-1.36-36.63-.32-54.94-.57a12.45,12.45,0,0,0-5.7,1.19c-11.38,5.33-20.39,14.09-30.79,20.82q-11.44,7.41-22.55,15.32c-7.13,5-14.07,10.36-20.95,15.46C143.53,817.49,142.72,833.14,145.63,850.33Zm707.75,203.42c-2.38-10.5-9.72-17.22-14.58-25.51l-50-71.58c-4.74-10.13-11.35-17.59-18.71-27.73-3.1-5.62-7-13.94-17.17-18.43v70.21l36,51.65c4.36,2.58,7.26,10,11.19,16.29,3.28,5.26,7.29,6.08,12.46,6.07,8,0,15.92.24,23.86.39A81.24,81.24,0,0,0,853.38,1053.75Zm65-615.19c-1.05,5.59,1,7.39,5.5,7.37,18.82-.09,37.64-.06,56.46-.08a10.25,10.25,0,0,0,3.86-.76c7.77-3.09,14-8.64,20.74-13.24,11.76-8,23.6-15.88,35-24.4,5.66-4.25,11.85-7.72,17.76-12.55V343ZM448,400.62c2.5-2.21,1.72-4.88,1.72-7.26,0-16-.84-32.05.26-48,.64-9.37-4.05-14.93-9.6-20.38-7.39-7.25-14.81-14.46-22.09-21.84-3.22-3.26-6-6.95-9.91-9.7-7.16-5.09-15.12-5.34-23.35-5.18-12.4.26-24.84-.52-37.21,1-2.35.28-4.72.53-6.23,3.83,12.69,19,32.18,32,45.51,50.31l5.33,1.65c13.28,16,28.74,29.81,42,45.69,2.27,1.23,4.32,3.41,7.09,3.52C444.05,398.81,444.05,398.81,448,400.62ZM397.71,749.68c-19.54-2.46-39.14-.73-59-1.49-7.9,7.77-15.59,15.72-23.7,23.19-6,5.5-10.25,13-18.54,16l-4.22,9.45c.1,20.35-.84,40.76,1,61.63,2.75-.46,4.63-.19,6.26-1.84,6.53-6.58,13.25-13,19.7-19.62,10.51-10.84,21.26-21.42,32-32,8.85-8.64,17.52-17.48,26.23-26.27,6.52-6.57,13.55-12.68,19.32-20C398.74,756.33,399.42,753.81,397.71,749.68Zm356.74,46.67c-2.64,1.56-2.14,4-2.15,6.31,0,14.5.51,29-.18,43.48-.47,10,1,18.32,9.78,24.37,3,2,5.23,5.08,7.77,7.7,1.7,1.75,2.4,4.34,4.85,5.49,5.78,2.7,8.64,8.19,13.23,13.44,2.73,1,5,4.2,7.77,6.78a8.49,8.49,0,0,0,6.29,2.38q26.22-.18,52.46-.28c2.16,0,4.49.41,5.76-1.94s.13-4.52-1.35-6.41c-1-1.31-2.17-2.51-3.28-3.75-6.56-7.33-14.8-12.83-20.91-20.84-5.4-7.09-12.88-12.6-19.06-19.21C806,843.77,795.19,835,785.9,824.71c-7.61-8.46-16-16.24-24.21-24.14C759.78,798.74,758.33,795.73,754.45,796.35ZM910.12,345c-7.68-3-12-2.19-16.44,2.56s-9.09,9.86-13.95,14.52q-17.57,16.83-34.63,34.2c-12.84,13.09-25.73,26.12-39.09,38.68-2.32,2.18-4.87,4.68-4.27,8.38a5.92,5.92,0,0,0,5.36,2.52c17.48-.25,35,.5,52.46-.31,3.65-.17,7.21-1.16,9.72-3.46,7.08-6.5,13.5-13.68,20.47-20.33,5.44-5.18,10-11.3,15.81-16.2,2.88-2.44,4.69-5.18,4.64-9.33C910,379.23,910.12,362.27,910.12,345Zm-25,409.23c1.11-2.95-.38-4.59-2.93-5.26-10.77-2.82-19.69-9.6-29.26-14.66-19.3-10.18-38.65-20.39-57.84-30.8-12.49-6.76-24.51-15-38.51-18.87a8.22,8.22,0,0,0-4.34,2.43c0,14.88.13,30.18-.06,45.48-.09,7.06-1.37,14.4,8.62,15.82.25,0,.39.55.66.71,6.52,3.9,13.36,6.56,21.14,6.55q48.72-.11,97.45,0C881.75,755.55,883.46,755.86,885.17,754.18Zm-433.46-1.93c-1.47,6.08-5.22,10.77-8.43,15.7V883.62c2.92-.17,3.87-1.9,5.25-3,.52-2.11,1-4.2,1.57-6.43a18.3,18.3,0,0,0,4.06-5.4c5.17-10,10.51-19.81,15.57-29.82,6.7-13.23,14.15-26.07,21.09-39.18,2.12-4,2.85-9,5.55-12.43,6.73-8.68,10.65-18.88,16.34-28.1,1.89-3.08,2.1-6.64-.42-9.6-1.8-1.2-3.64-1.07-5.48-1.08-14.82-.06-29.65,0-44.47-.3A13.76,13.76,0,0,0,451.71,752.25Zm-6.61-240c4-2.19,4.63-5.65,4.62-9.47q-.08-23.47-.07-46.94c0-1.48.4-3.32-.92-4.24-6.22-4.29-12.53-9.94-20-10.06-35.61-.58-71.24-.27-106.86-.25-1.74,0-3.81-.21-4.29,2.94C359.27,468,402.65,488.86,445.1,512.28Zm292-167.39c1.38,7.31-4.81,11.48-7.7,16.66-6.14,11-11.13,22.57-17.54,33.43-7.31,12.38-13.9,25.18-20.68,37.88-2,3.8-4.87,7.5-3.37,12.77h59.54c6.4-7.77,10.79-16.72,11.12-27.36.18-5.48-.31-11-.13-16.47.83-25.9-.63-51.8-.05-78l-4-3.54C744.92,326.17,744.85,338.15,737.12,344.89ZM1050.72,543,909.28,590.39c-1.37,2.62-.62,5.06.65,7.33,1.76,1.26,3.62,1.2,5.44,1.2,25.15,0,50.3,0,75.45,0,6.46,0,12-2.82,18-4.62,4.28-1.3,8-4.58,12.53-4.36,5,.25,9.06-1.48,13-4,2-1.26,4.29-1.64,6.4-2.46,5.64-2.18,12-2.66,17.29-7-.46-11.16,1.1-22.39-.64-33.26C1055,541.79,1053,542.42,1050.72,543ZM653.1,1055.59c3-3,3.48-5.46,1.89-11.06-2.74-9.66-5.88-19.27-9.49-28.56-4.43-11.41-7.29-23.26-11.61-34.68-4.93-13-9.4-26.31-13.09-39.82-1-3.63-1.45-7.92-4.64-10.31-1-9.32-6.39-16.92-7.55-25.77-4.06-.93-7.28-.74-9.21,3.58a34.65,34.65,0,0,1,1.18,9.65c-.15,22.47-.34,44.94-.24,67.41a48.18,48.18,0,0,0,3.1,16.52c4,10.87,7,22.08,11.12,32.91,2.43,6.45,3.51,13.44,6.6,18.28C632.15,1058.49,642.59,1051.93,653.1,1055.59ZM600.59,288.81c-.24-5.3,1.63-10.72,1.65-16.28,0-12-.69-24-.61-35.93.13-19.26,1.26-38.57-7.4-56.68-1.27-2.65-3.45-5-3.45-8.18,0-11.46-7.76-20.13-10.33-30.76-11.83-1.2-23-.35-33.8-.21-1.43,2.41-.92,4.15-.82,6,.24,4.79,3.09,8.64,4.24,13.09,1.75,6.82,4.12,13.51,6.48,20.09,2.83,7.89,5.35,15.91,8,23.84,3.6,10.62,7.54,21.14,10.81,31.9,1.14,3.75.41,8.89,3.86,10.63,4,15,10.41,28.05,13.14,41.36C595.19,289.59,597.09,290.51,600.59,288.81ZM293.42,599.26c-1.56-2.09-3.45-1.91-5.28-1.91-27,0-54,0-80.94,0-2.63,0-5.59,0-7.84,1.14-5.2,2.59-10.86,3.68-16.12,5.83-4.33,1.77-9.27,2.26-12.49,5.15-9.52,1.42-17.37,6.28-26.06,7.72-1.25,9.46-.65,18.26-.47,27.07.18,8.21,3.35,10.3,11,7.26,5.22-2.08,10.44-4.57,15.9-5.6,8.7-1.64,16.33-6.1,24.92-8.2a177.11,177.11,0,0,0,23.35-7.87A197,197,0,0,1,240.53,623c8.22-2.26,16.13-5.63,24.22-8.42,9.07-3.12,18.19-6.14,27.08-9.14A12.65,12.65,0,0,0,293.42,599.26Zm616.65-16.9c0-13.91,0-27.68-.06-41.45,0-1.37-.27-3.12-2.52-3.69-39.49,17-77.31,37.53-116.23,55.3a5.15,5.15,0,0,0,1.56,4.9,18.75,18.75,0,0,0,7.24,1.24c21.14.89,42.28-.12,63.41.42,10.8.27,20.32-2.05,28.17-9.08C898.79,590,903.6,585.58,910.07,582.36ZM541.44,289.22c-2.29,4.36.39,6.18,1.28,8.55,5.56,14.75,13.3,28.49,20.24,42.55,8.76,17.78,16.08,36.32,26.58,53.24a6.39,6.39,0,0,1,.74,2.82c.38,4.72,2.81,8,7.31,10.21,4.84-3.16,3.95-8.68,4.17-12.91.6-11.28,0-22.62-.12-33.93-.16-13.31.24-26.63-.58-37.88-5.34-11.65-10.69-21.06-14.15-31.35C571.27,288.18,556,287.3,541.44,289.22ZM292.76,658.33c9.11-.5,15.11-5.69,22-8.58S328,642,335.09,639.56c8.55-2.87,15.82-8,24-11.54,6.72-2.93,13.24-6.39,19.73-9.87,9.25-4.95,19.11-8.72,28.63-13.17a5.77,5.77,0,0,0,3.66-5.83c-1.6-2-3.77-1.57-5.67-1.58q-38-.24-75.92-.3c-3,0-6.1.07-8.74,1.59-5.43,3.11-11,5.79-16.67,8.5-4.08,2-9.2,2.81-11.71,8.17C292.39,629.32,292,643.65,292.76,658.33ZM600.29,786.05a8.2,8.2,0,0,0-.5,2.64c1.12,9.25,1,18.54.83,27.82-.29,14.64-.4,29.29-.68,43.93-.12,6.36.17,13.31,3.56,19.36a174,174,0,0,1,11.92,26.09c15-.23,30.12,1,47.11-.72-18.08-41.16-38.71-79.69-57.46-119.68C603.87,784.62,602.2,784.58,600.29,786.05ZM442.52,598c1.17,24.49-.62,48.2,1.05,71.88a3.35,3.35,0,0,0,4.13.51c1.75-2.08,3.15-4.54,5.23-6.06,11.13-8.15,19.19-19.45,29.46-28.53,5.09-4.5,9.88-9.65,14.65-14.65,5.95-6.24,12.07-12.34,18.18-18.43,1.49-1.48,2.23-2.86.69-4.72Zm244-.64a5.67,5.67,0,0,0,4.58,1.56q30.23,0,60.47,0c5.09,0,7-1.87,6.95-6.89-.3-18.14-.37-36.28.2-54.42a21.21,21.21,0,0,0-1.18-7.87c-.66-1.82-1.32-3.87-3.83-3.9-6,4.4-9.08,11.93-16.32,15.23-.36,2-1.6,3.41-3.29,5-7.47,7-14.47,14.39-21.92,21.35S698,582.51,690,589.17C687.67,591.1,685.4,593.63,686.55,597.34ZM602.68,755.45c20.85,0,42.14.07,63.42-.06,3.58,0,5.73-2.24,6.1-5.73l-62.45-62a14.64,14.64,0,0,1-5.62-4.32c-3.06,1-3.31,3.17-3.45,5.65-1.12,20.44.51,40.9-.48,61.34A5.36,5.36,0,0,0,602.68,755.45Zm-5.33-242.34c4-2.73,4.08-6.49,4.11-10.06.16-17.47.19-34.93.2-52.4,0-2.92.46-5.95-.83-8.67-8.46-1.83-70.25-1-73.56,1.15Q561.59,478.82,597.35,513.11Z" transform="translate(-1 -1)"/><path class="cls-1" d="M1199,756c-15.64-.44-31.28-.52-46.92-.49q-118,.16-236,0c-1,0-2,0-3,0-8.09-.07-8.62-.91-8.58-8.94.1-18.31-.08-36.63-.18-54.94,0-1.65-.3-3.32.87-5.4,4.61.13,9.29-.82,14.12,1.68,6.93,3.57,14.63,5.25,22,7.66,13.33,4.34,26.9,8,40,13.06,19.76,7.61,40.44,12.36,60.06,20.35,4.19,1.71,8.84,2.43,13.89,4.83,2.35-19.59-.12-38.82,1.47-58.83,7,3.45,13,6.44,19,9.41s11.93,5.78,17.85,8.76c6.34,3.2,12.52,6.75,19,9.73,9.79,4.53,19,10.07,28.7,14.87,9.25,4.59,18.72,8.84,27.47,14.47,3.49,2.25,7.64,3.49,11.53,5.09,6.54,2.67,11.83,7.77,18.78,9.64Z" transform="translate(-1 -1)"/><path class="cls-1" d="M443,1197c-.09-22.49-.19-45,.12-67.46.34-24.3-.82-48.64-.16-72.93,1-36.64-.77-73.26-.15-109.89.24-14.63,0-29.26,0-43.41,5.24-3.64,66.56-3.26,71.28.4-16.54,48.43-31.42,97.66-48.6,146.19,1.21,3,3.93,2.12,6.05,2.14,14.49.1,29,0,43.48,0,2,0,4-.18,6,.92-.17,2.5-.33,4.94-.49,7.43-4.1,4.93-5,11.48-8.55,16.66-7.31,10.73-11.32,23.2-18.21,34.16-2.77,4.41-4.32,9.56-6.7,14.24-5.68,11.19-11.57,22.28-17.27,33.46s-11.34,22.45-16.91,33.73a19,19,0,0,0-1,4.33Z" transform="translate(-1 -1)"/><path class="cls-1" d="M758,1c.19,39.68.5,79.36.55,119,.07,49.65-.08,99.3-.11,149q0,10.47.27,20.94c.1,4.14-2.15,5.69-5.87,5.73-5.67.06-11.33.06-17,.07q-20.75,0-41.49,0c-1.79,0-3.58-.15-5.38-.23-2.44-6.1.51-11.24,2.47-16,3.09-7.47,5.46-15.17,8.11-22.76,4.2-12,7.43-24.34,11.9-36.27,2.65-7.06,4.21-14.53,7-21.49,3-7.49,4.61-15.4,7.7-22.89,3.29-8,5.08-16.48,8.18-24.56,1-2.69,4.56-5,1.72-8.9H691.53c-4.71,0-8-1.9-9.23-6.92,2.47-5.8,6-11.32,7.14-17.89,3.77-1.5,4.2-5,5.59-8.17,2.6-6,6.26-11.43,9.19-17.25,4.85-9.62,9.32-19.42,14.21-29,6-11.71,11.71-23.54,18.56-35-.36-6.59,5.57-10.42,7.61-16.12C746,8.39,748.17,4.75,750,1Z" transform="translate(-1 -1)"/><path class="cls-1" d="M1,441c8.15.09,16.31.24,24.46.24q132.7,0,265.41,0H297c-.15,23.19.38,45.72-.48,68-2.08,2.08-4.18.94-5.9.41-9.29-2.87-18.56-5.81-27.71-9.07-7.63-2.72-15.45-4.87-22.89-8.24-4.11-1.87-9.05,0-13.44-2.4-14.69-7.94-31.28-10.69-46.71-16.59-8.81-3.38-18.09-5.21-26.79-8.87-1.75-.74-3.86-.62-7-1.06v55.95l-1.71,1.16c-18.07-9.09-36.18-18.11-54.07-27.51L27.15,460.62l-.06.16c-7.72-4-15.42-8-23.19-11.89C3.14,448.51,2,449,1,449Z" transform="translate(-1 -1)"/><path class="cls-1" d="M1,288c13.65.12,27.3.27,41,.36,7,0,13.65,2.27,19.94,4.89,24.4,10.14,46.8,24.19,70.19,36.33,3.06,1.59,6,3.62,9.31,4.58,4.05,1.17,5.2,3.83,5.1,7.47-.5,18.15-.68,36.3,0,54.44a9.71,9.71,0,0,1-1.58,5.25c-4.68,2.46-8.45-.77-12-2.56-15.22-7.71-30.19-15.93-45.3-23.89-15.85-8.34-31.43-17.18-47.49-25.16C27.9,343.62,16,336.81,3.88,330.38A8.62,8.62,0,0,0,1,330Z" transform="translate(-1 -1)"/><path class="cls-1" d="M292,1197c.1-16.81-.25-33.64.51-50.42.3-6.73,1.24-14.15,8.16-19.27,4.55-8.63,8.08-18.51,13.78-27.37,3-4.67,5-10,7.62-14.91,3.59-6.74,7.34-13.4,11-20.08.16-.28.59-.46.65-.74,2.67-11.6,10.72-12.79,21-12.24,15.44.83,31,.23,46.44.3,1.74,0,3.69-.46,4.86.73a2.65,2.65,0,0,1,0,3.23c-4.2,6.12-6.55,13.19-10.26,19.62-6.83,11.84-13,24.13-19.06,36.44-5.37,11-12.16,21.21-17.23,32.35-4.89,10.72-12.56,20.06-15.79,31.59-.59,2.12-2.58,2.43-3.57,3.48-1.61,6.31-6.79,10.82-7.17,17.29Z" transform="translate(-1 -1)"/><path class="cls-1" d="M1199,906c-16.66,0-33.32-.27-50,0-6.86.11-12-3.79-17.33-6.69-4.12-2.27-8.37-4.54-12.52-6.81-14.44-7.93-29.26-15.18-43.65-23.19-6.33-3.53-13.32-5.78-19.15-10.77V792.4c1.6-1.31,2.66-1.09,3.76-.49,14.18,7.74,28.36,15.46,42.78,22.76,9,4.53,17.78,9.35,26.64,14q18.93,10,37.79,20.19,13.7,7.36,27.45,14.6a31.73,31.73,0,0,0,4.2,1.5Z" transform="translate(-1 -1)"/><path class="cls-1" d="M910,1c-.4,16,.55,32,.12,48a22,22,0,0,1-3.36,11.19c-7.83,12.58-13.89,26.1-20.92,39.08-7.66,14.16-16.62,27.71-22.38,43.47-22.35.71-44.57-.38-66.48.92-2.47-2.37-1.68-4.27-.39-6.5,5-8.67,9.76-17.48,14.31-26.42,6.82-13.37,14.19-26.46,21.23-39.73C842.12,52.14,852,33.25,862,14.42c2.31-4.35,5.2-8.41,6-13.42Z" transform="translate(-1 -1)"/><path class="cls-1" d="M1,140a194,194,0,0,0,28.42.25c9-.47,15.29,3.64,21.67,9.15s13.57,10,20.39,14.95c13.36,9.73,26.69,19.49,39.53,29.91a116.18,116.18,0,0,0,13.82,9.38c7,4.09,12,10.41,19,14.29,2.17,1.21,2.5,3.78,2.51,6.21,0,16,.17,32,.11,47.95,0,3.23.45,6.7-2.28,9.88-5.42-1.63-9.93-5.13-14.22-8.51q-13.17-10.38-27-19.8A22.43,22.43,0,0,1,97.85,249c-.51-.64-.81-1.63-1.46-2-16.55-8.36-29.93-21.28-44.93-31.84-10.45-7.34-20.7-15.38-30.83-23.36C14.64,187.13,9,181.07,1,179Z" transform="translate(-1 -1)"/><path class="cls-1" d="M143,1197a129.7,129.7,0,0,0,.37-24.44c-1-10.7,2.76-19.26,9.39-27.1,5.63-6.66,10-14.3,15.57-20.94,9.54-11.43,17.26-24.18,26.84-35.61,4-4.77,7.58-10.63,11.52-15.66,5.46-7,9.73-15,16.12-20.7h61.64c.88,3.2-.38,5.34-1.91,7.32-8.15,10.56-16.69,20.84-24.37,31.74-4.23,6-8.76,11.84-12.71,18.11-4.35,6.88-9.82,13.16-14.88,19.63-4,5.1-7.44,10.56-11.43,15.64-6.51,8.31-13.74,16.21-19.13,25.2-5.57,9.29-14.21,16.43-18,26.81Z" transform="translate(-1 -1)"/><path class="cls-1" d="M1199,1055c-12,.72-23.94-.72-35.91-.9-2.79,0-4.68-1.83-6.57-3.27-10.35-7.84-20.22-16.35-30.88-23.72-9.16-6.34-18-13.07-27.11-19.48-8.61-6.07-16.77-12.75-25.43-18.79a129.61,129.61,0,0,0-13.15-8.48,6.27,6.27,0,0,1-3.67-6q0-28,0-56a4.41,4.41,0,0,1,1.48-3.73c5.66-.41,9.43,4.12,13.69,7.13,10.89,7.69,21.32,16,32.22,23.7,6.71,4.74,13.2,9.92,19.67,15.06,3.06,2.43,7.48,3.26,8.73,7.72,4.47.57,6.72,4.28,10,6.52,13.46,9.28,26.53,19.1,39.63,28.87,5.66,4.22,11,9,17.31,12.31Z" transform="translate(-1 -1)"/><path class="cls-1" d="M1,1160c4.79-1,7.22-5.11,10.35-8.17,12.18-11.89,23.79-24.35,36.38-35.86,4.44-4.06,8.39-9,12.82-13.37,7.21-7.08,14-14.64,21.42-21.46,8.54-7.83,16.22-16.48,24.51-24.54,3.2-3.11,6.4-4.71,10.94-4.55,8.3.31,16.61.09,24.27.09,3.32,2.4,4.07,5.08,4.17,8.29.24,8.13-1,16.31.73,24.5-5.58,7.7-12.76,13.87-19.61,20.25-5.86,5.47-11.14,11.49-16.84,17.1-6.27,6.17-12.55,12.37-18.74,18.64-12,12.07-24.05,24-36.07,36-5.06,5-10.08,10.16-15.12,15.24A6.2,6.2,0,0,0,38,1197H1Z" transform="translate(-1 -1)"/><path class="cls-1" d="M1058,1c0,9.48-.35,19,.11,28.42a23.68,23.68,0,0,1-6.62,18.16,100.72,100.72,0,0,0-9.44,12c-3.41,4.78-7.11,9.39-10.48,14.18-5.17,7.35-10.81,14.5-16.19,21.77-7.77,10.51-16.06,20.63-23.18,31.61a36.54,36.54,0,0,1-5.12,6.12,13.08,13.08,0,0,0-4.28,8.88c-20.76,1.07-41.54,1.58-62.35.33a2.42,2.42,0,0,1-2.25-2.37c4.34-10,11.69-17.47,17.52-26C946,99.27,957.55,85.35,968.3,70.83c13.26-17.92,26.19-36.08,39.36-54.07,3.2-4.37,6.71-8.52,10.2-12.67A3.6,3.6,0,0,0,1019,1Z" transform="translate(-1 -1)"/><path class="cls-1" d="M1163,1197a5.15,5.15,0,0,0-1.39-3.65c-5.28-5.35-10.22-11-15.74-16.19s-11.55-10.32-16-16.82c-2.83-4.15-7.49-6.56-10.81-10.44-5.42-6.32-11.88-11.75-17.49-17.92-1.66-1.82-3.67-2-5.36-2.85-3.28-5.91-7.53-10.62-13.65-13.73-2.23-7.16-9.54-10-13.79-15.61a13.81,13.81,0,0,0-3.31-3c-8.58-5.79-10.46-14-9.39-23.73a46.07,46.07,0,0,0-.54-15.91c-.5-2.09.5-3.5,2.17-4.52,7.47,1.94,15,.82,22.33.28,8.68-.65,14.85,2.61,20.38,8.7,9,10,19.15,18.85,28.4,28.54,11.93,12.51,25.08,23.8,36.37,36.94a85.79,85.79,0,0,0,10.11,9.47,20.38,20.38,0,0,1,5.43,6.72c7.55,3.78,10.64,12.38,18.25,15.74v38Z" transform="translate(-1 -1)"/><path class="cls-1" d="M39,1c3.35,5,7.92,8.92,12.25,12.85,9.57,8.68,18.16,18.29,27.42,27.24,11.76,11.36,23,23.27,34.56,34.81,10.74,10.7,21.66,21.23,33.26,32.57-.69,10.22,1.25,21.44-1,32.87-6,1-12,.41-17.9.58-2,.06-4.07-.39-6,0-11.22,2.31-17.16-4.77-23.58-12.16S83.8,116,77,108.86c-2.86-3-6.77-5.13-8.3-9.32C60.93,96,57.73,87.14,49.79,83.62l-1-4.42c-4.62-1.32-6.71-5.72-10.15-8.55C31.89,65.07,27,57.52,20.38,52,13.51,46.39,8.62,38.73,1,34V1Z" transform="translate(-1 -1)"/><path class="cls-1" d="M1199,36c-3.88,1.77-6.56,5.11-8.93,8.28a18.6,18.6,0,0,1-8.67,6.84l-2.34,5.25c-16.58,14.09-30.17,30.9-47.44,45.5-1.33,5-7.09,7.77-11.07,12-8.15,8.69-16.84,16.87-25.31,25.26a15.24,15.24,0,0,1-11.28,4.41c-7.75-.09-15.5-.45-23.24-.72a5.57,5.57,0,0,1-4.36-2.39c0-9.28-.13-19.07.07-28.86.06-3.3,2.28-5.88,4.61-8a274.8,274.8,0,0,0,21.59-22c5.31-6.07,11.7-11.19,17.46-16.88q13.25-13,26.26-26.32c7.54-7.64,15-15.4,22.47-23.07,4.7-4.81,9.45-9.56,14.18-14.33h36Z" transform="translate(-1 -1)"/><path class="cls-1" d="M1,982c6.9-.27,10-6.55,15-9.76a189.42,189.42,0,0,0,20.67-15.5C45.85,949,56,942.48,65.25,934.85c9.93-8.16,20.67-15.41,30.87-23.3,3-2.29,5.89-4.66,8.86-6.95,2.68-2.06,5.59-3.81,9-3.81,8.81,0,17.63.15,26.44.29a5.5,5.5,0,0,1,4.72,2.36c.56,7,1.61,14.25-1.18,21.63-1.3,3.44-3.93,4.86-6.4,6.6-12.15,8.52-23.76,17.78-35.69,26.56-9.27,6.83-18.36,14.26-27.51,21.37-6.72,5.21-13.94,10-20.57,15.38-12.34,10-25.28,19.17-38,28.65C11.36,1027,8.36,1033.57,1,1032Z" transform="translate(-1 -1)"/><path class="cls-1" d="M985,1197c-.81-7.45-6.57-12-10.54-17.52-5.46-7.6-11.32-14.91-16.83-22.49-4.31-5.92-9.29-11.42-13.74-17.3-3-3.94-5.3-8.48-9.84-11-.39-1.53-.76-3-1-4.12-10.26-11-17.74-23.82-27.63-35.06-2.69-11-1.39-33.77,2.43-36.93,8,1.32,16.38-.24,24.56,2.17,4.81,11.4,13.72,20.1,21,29.94,7.66,10.38,15.77,20.44,23.55,30.74,10.07,13.32,20.36,26.48,30.49,39.75,9.48,12.42,18.72,25.06,28,37.66a4,4,0,0,1,.61,4.2Z" transform="translate(-1 -1)"/><path class="cls-1" d="M1199,214c-9.1,5.33-17.33,11.87-25.43,18.56-6.22,5.12-12.79,9.7-19.34,14.36-7.63,5.43-15.23,11.1-22.41,17.18-7.94,6.73-16.71,12.3-24.8,18.8-4.83,3.88-9.87,7.52-14.82,11.25a6.77,6.77,0,0,1-4.14,1.54h-28.28c-2.86-1.58-3.17-3.83-3.25-6-.2-5.16-.07-10.32-.24-15.48a6.72,6.72,0,0,1,2.84-6.09c7.17-4.43,12.85-10.92,20.76-14.77a11,11,0,0,1,5.44-6.37c12.74-6.79,23-17.06,34.9-25.11,12.48-8.46,23.3-19.08,36.13-27.18,5.63-3.55,10.78-8.23,15.93-12.65,2.66-2.28,7.41-2.18,7.55-6.49,5.8-3.29,11-6.37,15.23-10.85A4.43,4.43,0,0,1,1199,163Z" transform="translate(-1 -1)"/><path class="cls-1" d="M218,1c0,4.55,3.47,7.64,5.86,10.44,7.26,8.52,14.24,17.37,20.61,26.42,4.07,5.79,8.22,11.81,12.62,17.27,5.94,7.4,11.34,15.24,17.53,22.47,7.3,8.55,14,17.63,20.92,26.51a4.46,4.46,0,0,1,.93,2.27c.85,11.59.58,23.17.43,35.13H271.38C238.66,97.22,204.8,53.31,171.47,9c-3.23-1.72-4.15-5.47-6.47-8Z" transform="translate(-1 -1)"/><path class="cls-1" d="M1,800c6.19-1,10.79-5.39,16.42-7.63,5.32-2.11,10-5.46,15.49-7.51,6.69-2.5,12.74-6.86,19.26-10.12,9.73-4.85,19.31-10,29.1-14.79,6.55-3.19,13.51-6.11,19.76-11.49,12.31,0,25.27-.23,38.22.09,6.92.17,7.62,9.77,5.42,15.41-1.78,4.56-6.53,5.45-10.13,7.45-7.64,4.25-15.58,8-23,12.72-3.08,2-6.67,1.76-10,3-4.92,5.08-11.81,6.93-17.79,10.27-11,6.12-22.3,11.59-33.44,17.4-12.5,6.53-24.88,13.29-37.49,19.59C9.23,836.18,5,836.82,1,838Z" transform="translate(-1 -1)"/><path class="cls-1" d="M804,1197c-5.58-10.53-10.69-21.3-16.4-31.78S777,1144,771.49,1133.38q-7.25-14-14.54-28c-3.06-5.9-5.31-11.86-4.8-18.86.59-8,.17-16,.23-24,.07-8.45,5.29-12.15,13.39-9.5,1.74.57,3.43,1.27,5,1.85L836,1182.42c-.39,4.28,5.76,8.42,7,14.58Z" transform="translate(-1 -1)"/><path class="cls-1" d="M401,1a6.29,6.29,0,0,0,.34,4.83Q409,20.77,416.6,35.71c5.84,11.44,11.59,22.92,17.57,34.29,2,3.72,3.65,7.6,6.4,10.94,3.22,3.9,2.79,9.41,5.53,13.71a29.28,29.28,0,0,0,3.64,4.81c-.3,14.37.51,28.88-.58,43.78l-17.57-1.7C421.13,118.76,408,97.77,400.05,78.62c-7.05-10.81-9.66-19.35-14.53-28.53-4.28-2.76-4.87-9.6-8-14.94-5-8.67-9.21-17.86-14-26.66A28.34,28.34,0,0,1,361,1Z" transform="translate(-1 -1)"/><path class="cls-1" d="M1199,396c-7.28,3.82-14.83,7.07-22.08,11-11.34,6.15-23,11.75-34.48,17.59-8.86,4.51-17.83,8.82-26.52,13.63-8.35,4.63-16.62,8.52-26.65,7.75-8.28-.64-16.64-.12-25-.19-2.62,0-5.38.26-7.64-2.07v-12.4c2.64-5.08,7.84-6.05,12-8.11,15.54-7.72,30.76-16.09,46.29-23.8,20.83-10.35,41.28-21.44,62.31-31.39a151.2,151.2,0,0,0,16.14-8.55c1.76-1.11,3.5-1.9,5.61-1.46Z" transform="translate(-1 -1)"/><path class="cls-1" d="M1,620c8.56-1,16.79-3.4,25-5.9a109.83,109.83,0,0,1,12.9-3.45c13.8-2.39,27.24-6.41,40.57-10.22,20-5.73,40-1.66,60-3,3.83-.27,5.82,1.8,6,5.73.12,3.31.71,6.61-.07,10.26-3.92,1.68-7.71,3.62-12.24,4.56a127.46,127.46,0,0,0-15.17,4.14c-5,1.71-10.17,3-15.24,4.14C88.21,629.6,74,634,59.67,637.78c-5.12,1.37-10.35,2.19-15.44,3.81-11.15,3.54-22.57,6.23-33.83,9.43-3.12.89-6.31.28-9.4,1Z" transform="translate(-1 -1)"/><path class="cls-1" d="M623,1197c.71-3.72-.47-7-1.51-10.61-1.64-5.67-2.59-11.54-4.3-17.24-2.86-9.49-5.35-19.09-7.91-28.67-1.65-6.2-3.45-12.38-4.54-18.68-.49-2.88-2.21-5.08-2.75-7.9a100.91,100.91,0,0,1-1.88-21.8c.27-10.48,0-21,0-31.45,0-2-.07-4,1.14-6,4.66-1.65,9.7-1.08,15.83-1.92,9.36,25.33,13.29,52.46,23.11,80.21-.53,6.35,2.34,14.44,5.33,22.64a62.88,62.88,0,0,1,3,11c1.38,8.29,4,16.16,6.74,24,.69,2,.52,4.26.74,6.4Z" transform="translate(-1 -1)"/><path class="cls-1" d="M1199,575c-6.47,2.28-13.32,3.09-19.92,5-4.95,1.44-9.9,3.82-15.33,3.77-3.94,0-7.29,2.08-10.8,3.52-8,3.27-16.77,3.09-24.88,6.34-21.32,8.57-43.87,4.45-65.93,5.33a7.93,7.93,0,0,1-2.46-.36,23.17,23.17,0,0,1-2.61-1.2,41.66,41.66,0,0,1,.31-16.64c7.25-1.14,13.84-5,21.57-4.59l3-2.71c6.47.52,12.24-2.57,18.21-4.21,12.7-3.51,25.45-7,38.17-10.35,9.9-2.59,19.91-5.25,29.94-7.55,10.35-2.37,20.94-4.73,30.71-9.36Z" transform="translate(-1 -1)"/><path class="cls-1" d="M579,1c-.26,6.58,3.25,12.3,4.22,18.63,1.66,10.91,7.53,20.77,7.78,32.13.08,3.82,2,7.81,3.56,11.22,2.74,5.85,2.44,12.24,4.85,18.15,2.07,5.05,2.51,11.09,2.34,16.65-.38,12.81.83,25.61-.23,38.41-.16,1.81.22,3.67-1.58,5.53H583.8L546,1Z" transform="translate(-1 -1)"/><path class="cls-1" d="M150.29,142.9c5.91-3,61.18-3.66,68.9-1.46,25.93,26.36,51,51.85,77.43,78.7,2.09,11.47.54,60.55-3.35,64.17C245.25,237.68,198.76,189.42,150.29,142.9Z" transform="translate(-1 -1)"/><path class="cls-1" d="M1056.66,150.2c1.39.77,1.21,2.56,1.22,4.17.11,18.66-.05,37.32.41,56,.16,6.77-4.16,10-8.23,13.87-5.32,5-11.21,9.49-15.81,15.07-7.5,9.11-17.11,16.08-24.67,25-6.58,7.73-14.55,14-21.15,21.6a38.68,38.68,0,0,1-4.41,3.72c-1,4.57-4.45,6.19-9.15,6.18-19-.06-38,0-57-.06-1.89,0-4.14.55-5.57-2.91Z" transform="translate(-1 -1)"/><path class="cls-1" d="M223.61,901.11c20.51.34,42.07-1,64,1.49-22.12,26-46.59,48.93-70.14,72.7s-47.16,47.09-71.28,71.15c-1.94,0-2.07-2.11-2.17-4.11-1-18.8-.37-37.63-.68-56.45-.08-5.12,2.73-9.17,5.89-12.09,7.26-6.73,14.5-13.58,21.25-20.71,5.67-6,12.73-10.91,16.7-18.48a1.83,1.83,0,0,1,.62-.77C201.94,925.76,209,910,223.61,901.11Z" transform="translate(-1 -1)"/><path class="cls-1" d="M1028.88,1030.07l2.82.75c2,8.4,9.72,11.56,14.92,17a5.27,5.27,0,0,1,1.53,4.94,3.38,3.38,0,0,1-3.19,2.2c-19.75-.3-39.5.62-59.24-.52a6.3,6.3,0,0,1-4.72-2.39c-8.34-9.86-18.47-17.94-27.14-27.56-5.76-6.39-12.94-11.81-19-18.07-7.1-7.38-14.45-14.51-21.5-21.92a19,19,0,0,0-3.58-2.56c-3-2-5.24-4.33-5.24-8.39,0-18.14-.12-36.28-.26-54.42,0-2.78.18-5.33,3.47-7.14,9.88,5,14.52,16.76,25.58,21.45,1.31.88.81,3,1.38,4.19C966.65,967.69,996.59,999,1028.88,1030.07Z" transform="translate(-1 -1)"/><path class="cls-1" d="M864.27,295.17H802c-1.34-3.19-.18-5.1,1.36-7.28,8.87-12.66,17.73-25.32,26.36-38.14,8-11.88,15.74-23.94,23.93-35.7,7.54-10.81,14.94-21.72,22.35-32.63,7.73-11.38,15.6-22.66,23-34.27,2.75-4.32,5.84-4.81,10.06-3.5,1.87,2.69.81,5.62.83,8.34.21,23,.17,45.95.4,68.93.05,5.13-2,9.29-4.67,13.33C894.79,250.5,884.18,266.9,873,282.89,870,287.16,868.32,292.53,864.27,295.17Z" transform="translate(-1 -1)"/><path class="cls-1" d="M145.7,289.87c6.75-.52,13.35-1.39,20-1.47,17.16-.21,34.31.1,51.46-.15,12.28-.17,21.94,5.3,31.13,12.65,5.35,4.29,11.33,7.8,17,11.65l31,20.87v64.07c-4.73-1.11-7.83-3.61-10.72-5.72-10.26-7.48-20.92-14.38-31.42-21.45s-21-14-31.65-20.82c-20.67-13.29-40.7-27.56-61-41.48-4.72-3.24-10.23-5.28-14.32-9.44C144.41,295.72,144.34,295,145.7,289.87Z" transform="translate(-1 -1)"/><path class="cls-1" d="M298.72,1053.53c-2.64.49-4.45-.06-6.49-2.58v-24.56c0-17.66,0-35.31.12-53,.06-6.34,3-11.45,6.86-16.51,5.08-6.65,9.6-13.76,14-20.91,6.8-11,14.12-21.65,21.39-32.33,1.73-2.53,4.87-2.76,7.72-2.76q24,0,48,.16c2.39,0,5.08-.39,7.45,2.31-1.91,4.73-2.89,10.14-6.28,14.46-7.6,9.67-14.29,20-21,30.27-5.75,8.85-12.35,17.06-18,25.95-9,14.28-18.5,28.22-27.81,42.29-7.19,10.85-15.07,21.24-21.54,32.56C302.11,1050.86,300.37,1052.13,298.72,1053.53Z" transform="translate(-1 -1)"/><path class="cls-1" d="M935,883.54c-8.89-9.5-20.64-14.23-30.76-22.12.85-19.06.48-38.34,0-57.11a5.88,5.88,0,0,1,4.59-3.53,21.78,21.78,0,0,1,9.84,4.33c7.3,5.28,15,10,22.43,15.11,6,4.16,11.57,9.19,17.95,12.73,9,5,16.76,11.63,25.38,17.09,11,7,22.18,13.83,32.67,21.56,11.26,8.29,23.31,15.34,34.69,23.4,3.51,2.49,7.41,4.91,5.07,10.5-5.61,1.64-11.28.41-16.87.45-22.15.16-44.3.06-66.45-.12-6-.05-10-4.65-14.72-7.52a144.39,144.39,0,0,1-15.39-11C940.71,885.13,937.92,883.7,935,883.54Z" transform="translate(-1 -1)"/><path class="cls-1" d="M346,142.46a8.25,8.25,0,0,1,6.19-2.16c14.49,0,29,0,43.68,0a52.73,52.73,0,0,1,9.48,11.62c5.79,9.34,12.42,18.15,18.69,27.2q11.55,16.63,23.06,33.28a14,14,0,0,1,2.63,8.39c-.08,20.15,0,40.3-.05,60.44,0,2.29.25,4.75-3.16,7C413.22,239.67,380.35,190.82,346,142.46Z" transform="translate(-1 -1)"/><path class="cls-1" d="M145.63,850.33c-2.91-17.19-2.1-32.84-1.39-49.13,6.88-5.1,13.82-10.42,20.95-15.46q11.12-7.89,22.55-15.32c10.4-6.73,19.41-15.49,30.79-20.82a12.45,12.45,0,0,1,5.7-1.19c18.31.25,36.64-.79,54.94.57,3.21.24,6.61-1.55,9.67,1,.35,2.66-.94,4.3-3,5.73-11.86,8.06-23.65,16.23-35.5,24.31-16.87,11.49-33.81,22.87-50.63,34.45-7.57,5.21-15.15,10.44-22.67,15.71-7.76,5.45-15.74,10.61-23.28,16.37C151.55,848.17,148.89,847.44,145.63,850.33Z" transform="translate(-1 -1)"/><path class="cls-1" d="M853.38,1053.75a81.24,81.24,0,0,1-16.93,1.36c-7.94-.15-15.9-.4-23.86-.39-5.17,0-9.18-.81-12.46-6.07-3.93-6.3-6.83-13.71-11.19-16.29l-36-51.65V910.5c10.16,4.49,14.07,12.81,17.17,18.43,7.36,10.14,14,17.6,18.71,27.73l50,71.58C843.66,1036.53,851,1043.25,853.38,1053.75Z" transform="translate(-1 -1)"/><path class="cls-1" d="M918.33,438.56,1057.62,343V394.9c-5.91,4.83-12.1,8.3-17.76,12.55-11.37,8.52-23.21,16.42-35,24.4-6.78,4.6-13,10.15-20.74,13.24a10.25,10.25,0,0,1-3.86.76c-18.82,0-37.64,0-56.46.08C919.31,446,917.28,444.15,918.33,438.56Z" transform="translate(-1 -1)"/><path class="cls-1" d="M448,400.62c-3.91-1.81-3.91-1.81-6.46-6.36-2.77-.11-4.82-2.29-7.09-3.52-13.28-15.88-28.74-29.73-42-45.69l-5.33-1.65c-13.33-18.3-32.82-31.29-45.51-50.31,1.51-3.3,3.88-3.55,6.23-3.83,12.37-1.48,24.81-.7,37.21-1,8.23-.16,16.19.09,23.35,5.18,3.88,2.75,6.69,6.44,9.91,9.7,7.28,7.38,14.7,14.59,22.09,21.84,5.55,5.45,10.24,11,9.6,20.38-1.1,15.91-.22,32-.26,48C449.68,395.74,450.46,398.41,448,400.62Z" transform="translate(-1 -1)"/><path class="cls-1" d="M397.71,749.68c1.71,4.13,1,6.65-.89,9.08-5.77,7.31-12.8,13.42-19.32,20-8.71,8.79-17.38,17.63-26.23,26.27-10.79,10.55-21.54,21.13-32,32-6.45,6.65-13.17,13-19.7,19.62-1.63,1.65-3.51,1.38-6.26,1.84-1.82-20.87-.88-41.28-1-61.63l4.22-9.45c8.29-3,12.57-10.49,18.54-16,8.11-7.47,15.8-15.42,23.7-23.19C358.57,749,378.17,747.22,397.71,749.68Z" transform="translate(-1 -1)"/><path class="cls-1" d="M754.45,796.35c3.88-.62,5.33,2.39,7.24,4.22,8.22,7.9,16.6,15.68,24.21,24.14,9.29,10.32,20.08,19.06,29.53,29.16,6.18,6.61,13.66,12.12,19.06,19.21,6.11,8,14.35,13.51,20.91,20.84,1.11,1.24,2.27,2.44,3.28,3.75,1.48,1.89,2.66,4,1.35,6.41s-3.6,1.93-5.76,1.94q-26.24.11-52.46.28a8.49,8.49,0,0,1-6.29-2.38c-2.77-2.58-5-5.81-7.77-6.78-4.59-5.25-7.45-10.74-13.23-13.44-2.45-1.15-3.15-3.74-4.85-5.49-2.54-2.62-4.81-5.67-7.77-7.7-8.81-6-10.25-14.4-9.78-24.37.69-14.46.17-29,.18-43.48C752.31,800.39,751.81,797.91,754.45,796.35Z" transform="translate(-1 -1)"/><path class="cls-1" d="M910.12,345c0,17.32-.11,34.28.08,51.23,0,4.15-1.76,6.89-4.64,9.33-5.8,4.9-10.37,11-15.81,16.2-7,6.65-13.39,13.83-20.47,20.33-2.51,2.3-6.07,3.29-9.72,3.46-17.48.81-35,.06-52.46.31a5.92,5.92,0,0,1-5.36-2.52c-.6-3.7,2-6.2,4.27-8.38,13.36-12.56,26.25-25.59,39.09-38.68q17-17.39,34.63-34.2c4.86-4.66,9.36-9.63,13.95-14.52S902.44,341.91,910.12,345Z" transform="translate(-1 -1)"/><path class="cls-1" d="M885.17,754.18c-1.71,1.68-3.42,1.37-5.07,1.37q-48.74,0-97.45,0c-7.78,0-14.62-2.65-21.14-6.55-.27-.16-.41-.67-.66-.71-10-1.42-8.71-8.76-8.62-15.82.19-15.3.06-30.6.06-45.48a8.22,8.22,0,0,1,4.34-2.43c14,3.92,26,12.11,38.51,18.87,19.19,10.41,38.54,20.62,57.84,30.8,9.57,5.06,18.49,11.84,29.26,14.66C884.79,749.59,886.28,751.23,885.17,754.18Z" transform="translate(-1 -1)"/><path class="cls-1" d="M451.71,752.25a13.76,13.76,0,0,1,10.63-4c14.82.26,29.65.24,44.47.3,1.84,0,3.68-.12,5.48,1.08,2.52,3,2.31,6.52.42,9.6-5.69,9.22-9.61,19.42-16.34,28.1-2.7,3.48-3.43,8.42-5.55,12.43-6.94,13.11-14.39,26-21.09,39.18-5.06,10-10.4,19.87-15.57,29.82a18.3,18.3,0,0,1-4.06,5.4c-.54,2.23-1.05,4.32-1.57,6.43-1.38,1.15-2.33,2.88-5.25,3V768C446.49,763,450.24,758.33,451.71,752.25Z" transform="translate(-1 -1)"/><path class="cls-1" d="M445.1,512.28c-42.45-23.42-85.83-44.3-127.55-68,.48-3.15,2.55-2.93,4.29-2.94,35.62,0,71.25-.33,106.86.25,7.5.12,13.81,5.77,20,10.06,1.32.92.91,2.76.92,4.24q0,23.47.07,46.94C449.73,506.63,449.11,510.09,445.1,512.28Z" transform="translate(-1 -1)"/><path class="cls-1" d="M737.12,344.89c7.73-6.74,7.8-18.72,17.16-24.59l4,3.54c-.58,26.16.88,52.06.05,78-.18,5.48.31,11,.13,16.47-.33,10.64-4.72,19.59-11.12,27.36H687.83c-1.5-5.27,1.35-9,3.37-12.77,6.78-12.7,13.37-25.5,20.68-37.88,6.41-10.86,11.4-22.43,17.54-33.43C732.31,356.37,738.5,352.2,737.12,344.89Z" transform="translate(-1 -1)"/><path class="cls-1" d="M1050.72,543c2.27-.61,4.29-1.24,6.72.2,1.74,10.87.18,22.1.64,33.26-5.25,4.35-11.65,4.83-17.29,7-2.11.82-4.41,1.2-6.4,2.46-4,2.51-8.05,4.24-13,4-4.53-.22-8.25,3.06-12.53,4.36-6,1.8-11.54,4.64-18,4.62-25.15-.06-50.3,0-75.45,0-1.82,0-3.68.06-5.44-1.2-1.27-2.27-2-4.71-.65-7.33Z" transform="translate(-1 -1)"/><path class="cls-1" d="M653.1,1055.59c-10.51-3.66-21,2.9-31.94-1.85-3.09-4.84-4.17-11.83-6.6-18.28-4.08-10.83-7.12-22-11.12-32.91a48.18,48.18,0,0,1-3.1-16.52c-.1-22.47.09-44.94.24-67.41A34.65,34.65,0,0,0,599.4,909c1.93-4.32,5.15-4.51,9.21-3.58,1.16,8.85,6.5,16.45,7.55,25.77,3.19,2.39,3.65,6.68,4.64,10.31,3.69,13.51,8.16,26.77,13.09,39.82,4.32,11.42,7.18,23.27,11.61,34.68,3.61,9.29,6.75,18.9,9.49,28.56C656.58,1050.13,656.11,1052.6,653.1,1055.59Z" transform="translate(-1 -1)"/><path class="cls-1" d="M600.59,288.81c-3.5,1.7-5.4.78-8.19-1.15-2.73-13.31-9.1-26.39-13.14-41.36-3.45-1.74-2.72-6.88-3.86-10.63-3.27-10.76-7.21-21.28-10.81-31.9-2.69-7.93-5.21-16-8-23.84-2.36-6.58-4.73-13.27-6.48-20.09-1.15-4.45-4-8.3-4.24-13.09-.1-1.83-.61-3.57.82-6,10.79-.14,22-1,33.8.21,2.57,10.63,10.33,19.3,10.33,30.76,0,3.22,2.18,5.53,3.45,8.18,8.66,18.11,7.53,37.42,7.4,56.68-.08,12,.64,24,.61,35.93C602.22,278.09,600.35,283.51,600.59,288.81Z" transform="translate(-1 -1)"/><path class="cls-1" d="M293.42,599.26a12.65,12.65,0,0,1-1.59,6.15c-8.89,3-18,6-27.08,9.14-8.09,2.79-16,6.16-24.22,8.42a197,197,0,0,0-21.14,6.91A177.11,177.11,0,0,1,196,637.75c-8.59,2.1-16.22,6.56-24.92,8.2-5.46,1-10.68,3.52-15.9,5.6-7.65,3-10.82,1-11-7.26-.18-8.81-.78-17.61.47-27.07,8.69-1.44,16.54-6.3,26.06-7.72,3.22-2.89,8.16-3.38,12.49-5.15,5.26-2.15,10.92-3.24,16.12-5.83,2.25-1.12,5.21-1.13,7.84-1.14,27-.07,54,0,80.94,0C290,597.35,291.86,597.17,293.42,599.26Z" transform="translate(-1 -1)"/><path class="cls-1" d="M910.07,582.36c-6.47,3.22-11.28,7.66-18.43,7.64-7.85,7-17.37,9.35-28.17,9.08-21.13-.54-42.27.47-63.41-.42a18.75,18.75,0,0,1-7.24-1.24,5.15,5.15,0,0,1-1.56-4.9c38.92-17.77,76.74-38.3,116.23-55.3,2.25.57,2.52,2.32,2.52,3.69C910.11,554.68,910.07,568.45,910.07,582.36Z" transform="translate(-1 -1)"/><path class="cls-1" d="M541.44,289.22c14.56-1.92,29.83-1,45.47,1.3,3.46,10.29,8.81,19.7,14.15,31.35.82,11.25.42,24.57.58,37.88.14,11.31.72,22.65.12,33.93-.22,4.23.67,9.75-4.17,12.91-4.5-2.25-6.93-5.49-7.31-10.21a6.39,6.39,0,0,0-.74-2.82C579,376.64,571.72,358.1,563,340.32c-6.94-14.06-14.68-27.8-20.24-42.55C541.83,295.4,539.15,293.58,541.44,289.22Z" transform="translate(-1 -1)"/><path class="cls-1" d="M292.76,658.33c-.8-14.68-.37-29-.41-42.8,2.51-5.36,7.63-6.2,11.71-8.17,5.63-2.71,11.24-5.39,16.67-8.5,2.64-1.52,5.77-1.59,8.74-1.59q38,.06,75.92.3c1.9,0,4.07-.42,5.67,1.58A5.77,5.77,0,0,1,407.4,605c-9.52,4.45-19.38,8.22-28.63,13.17-6.49,3.48-13,6.94-19.73,9.87-8.13,3.55-15.4,8.67-24,11.54-7.12,2.4-13.38,7.25-20.36,10.19S301.87,657.83,292.76,658.33Z" transform="translate(-1 -1)"/><path class="cls-1" d="M600.29,786.05c1.91-1.47,3.58-1.43,4.78-.56,18.75,40,39.38,78.52,57.46,119.68-17,1.67-32.12.49-47.11.72A174,174,0,0,0,603.5,879.8c-3.39-6-3.68-13-3.56-19.36.28-14.64.39-29.29.68-43.93.18-9.28.29-18.57-.83-27.82A8.2,8.2,0,0,1,600.29,786.05Z" transform="translate(-1 -1)"/><path class="cls-1" d="M442.52,598h73.39c1.54,1.86.8,3.24-.69,4.72-6.11,6.09-12.23,12.19-18.18,18.43-4.77,5-9.56,10.15-14.65,14.65-10.27,9.08-18.33,20.38-29.46,28.53-2.08,1.52-3.48,4-5.23,6.06a3.35,3.35,0,0,1-4.13-.51C441.9,646.18,443.69,622.47,442.52,598Z" transform="translate(-1 -1)"/><path class="cls-1" d="M686.55,597.34c-1.15-3.71,1.12-6.24,3.44-8.17,8-6.66,14.65-14.67,22.22-21.76s14.45-14.4,21.92-21.35c1.69-1.57,2.93-3,3.29-5,7.24-3.3,10.27-10.83,16.32-15.23,2.51,0,3.17,2.08,3.83,3.9a21.21,21.21,0,0,1,1.18,7.87c-.57,18.14-.5,36.28-.2,54.42.09,5-1.86,6.88-6.95,6.89q-30.24,0-60.47,0A5.67,5.67,0,0,1,686.55,597.34Z" transform="translate(-1 -1)"/><path class="cls-1" d="M602.68,755.45a5.36,5.36,0,0,1-2.48-5.15c1-20.44-.64-40.9.48-61.34.14-2.48.39-4.64,3.45-5.65a14.64,14.64,0,0,0,5.62,4.32l62.45,62c-.37,3.49-2.52,5.71-6.1,5.73C644.82,755.52,623.53,755.45,602.68,755.45Z" transform="translate(-1 -1)"/><path class="cls-1" d="M597.35,513.11q-35.86-34.39-70.08-70c3.31-2.14,65.1-3,73.56-1.15,1.29,2.72.83,5.75.83,8.67,0,17.47,0,34.93-.2,52.4C601.43,506.62,601.31,510.38,597.35,513.11Z" transform="translate(-1 -1)"/></svg>