<?xml version="1.0" encoding="UTF-8"?>
<svg width="1198px" height="1196px" viewBox="0 0 1198 1196" version="1.1" xmlns="http://www.w3.org/2000/svg" xmlns:xlink="http://www.w3.org/1999/xlink">
    <!-- Generator: Sketch 51.3 (57544) - http://www.bohemiancoding.com/sketch -->
    <title>Group 3</title>
    <desc>Created with Sketch.</desc>
    <defs>
        <polygon id="path-1" points="0.0001 0 1198 0 1198 1195.9996 0.0001 1195.9996"></polygon>
    </defs>
    <g id="Page-1" stroke="none" stroke-width="1" fill="none" fill-rule="evenodd">
        <g id="Group-3">
            <mask id="mask-2" fill="white">
                <use xlink:href="#path-1"></use>
            </mask>
            <g id="Clip-2"></g>
            <path d="M526.5811,440.3046 C526.4551,441.0496 526.3281,441.7956 526.2011,442.5406 C549.5071,465.8076 572.8111,489.0736 596.1161,512.3396 C596.7861,512.1756 597.4561,512.0116 598.1261,511.8476 C598.9251,508.6446 600.3641,505.4516 600.4151,502.2376 C600.6991,484.4336 600.6621,466.6256 600.6851,448.8196 C600.6881,446.2126 600.4231,443.6056 600.2441,440.3126 C575.3641,440.2336 550.9721,440.1956 526.5811,440.3046 Z M600.5381,754.5236 C607.1621,754.5236 612.9731,754.5216 618.7841,754.5236 C633.4431,754.5286 648.1031,754.5346 662.7641,754.5396 C667.1091,754.5416 670.6721,753.5096 671.2111,748.5506 C650.1991,727.7026 629.4291,707.0936 608.6571,686.4846 C608.7961,686.3906 608.9341,686.2956 609.0721,686.2016 C606.9241,684.9856 604.7751,683.7696 601.7391,682.0496 C601.0491,683.9026 599.7931,685.7336 599.7651,687.5826 C599.4551,708.2016 599.3081,728.8236 599.2191,749.4456 C599.2121,750.9696 599.9901,752.4976 600.5381,754.5236 Z M738.0911,540.7026 C737.7311,540.5476 737.3731,540.3916 737.0141,540.2366 C735.7011,541.8006 734.5001,543.4746 733.0591,544.9086 C725.8381,552.0926 718.5691,559.2286 711.2891,566.3516 C703.8941,573.5856 696.3381,580.6616 689.1321,588.0776 C687.0881,590.1816 686.0191,593.2336 684.0091,596.7036 C687.0941,597.3396 688.4961,597.8766 689.9001,597.8816 C710.3601,597.9466 730.8191,597.9026 751.2791,597.9826 C755.5441,597.9986 757.3551,595.7576 757.5201,591.8926 C757.6331,589.2486 757.2681,586.5886 757.2911,583.9366 C757.4241,568.1426 757.6871,552.3496 757.7221,536.5556 C757.7311,532.1686 757.6541,527.5666 752.6581,524.0656 C747.7271,529.6976 742.9091,535.2006 738.0911,540.7026 Z M446.3101,669.8426 C448.5351,667.2206 450.0921,665.0336 451.9931,663.2036 C461.8201,653.7506 471.8011,644.4556 481.5941,634.9676 C486.5471,630.1676 491.1951,625.0536 496.0221,620.1226 C502.0521,613.9666 508.1821,607.9086 514.1181,601.6646 C515.1061,600.6256 515.3291,598.8596 516.2781,596.5076 C490.6481,596.3526 466.3621,596.0626 442.1451,596.5816 L442.1451,669.2786 C443.9081,669.5176 445.1451,669.6856 446.3101,669.8426 Z M659.3891,904.5646 C659.9301,904.0136 660.4721,903.4616 661.0131,902.9096 C643.3841,862.9616 622.8231,824.3776 604.0341,784.4266 L599.3221,784.4266 C599.3221,790.6766 599.3331,796.4236 599.3211,802.1696 C599.2841,819.9716 599.3901,837.7766 599.1301,855.5756 C599.0061,864.0976 599.3941,872.4386 603.1081,880.2606 C604.1381,882.4276 605.9081,884.2516 606.8721,886.4386 C609.4541,892.3036 611.7841,898.2816 614.3581,904.5646 L659.3891,904.5646 Z M292.1111,658.7626 C300.2721,655.0346 307.1221,652.0716 313.8211,648.7996 C320.6531,645.4636 327.2691,641.6836 334.1061,638.3566 C341.9171,634.5566 349.9281,631.1676 357.7361,627.3656 C364.4981,624.0736 371.0051,620.2546 377.7941,617.0266 C387.2851,612.5136 397.0071,608.4826 406.4511,603.8796 C408.3081,602.9756 409.3551,600.4096 411.5981,597.5706 C407.9601,597.0686 405.9041,596.5476 403.8471,596.5356 C378.8601,596.3886 353.8721,596.2106 328.8871,596.3456 C325.4511,596.3646 321.8361,597.6036 318.6301,599.0166 C310.6931,602.5146 302.9451,606.4406 294.3701,610.5556 C293.7971,611.2226 292.6161,612.5976 292.1111,613.1856 L292.1111,658.7626 Z M538.8101,290.0966 C540.3221,293.8296 541.6191,297.6496 543.3731,301.2476 C550.4651,315.7986 557.6931,330.2836 564.8781,344.7886 C572.7201,360.6196 580.5791,376.4426 588.3891,392.2896 C588.8831,393.2926 589.1911,394.4566 589.2881,395.5716 C589.6991,400.3166 592.2101,403.4586 596.6481,405.6446 C601.3261,402.3236 600.6171,396.8616 600.8511,392.6086 C601.4481,381.6836 600.7331,370.6916 600.6741,359.7256 C600.6001,346.1016 600.6561,332.4776 600.6561,318.8536 C600.2181,318.9096 599.7781,318.9676 599.3401,319.0246 C596.9491,314.1506 594.4731,309.3166 592.1911,304.3916 C589.8801,299.4036 587.7621,294.3256 585.6601,289.5186 C563.0661,286.3396 544.0581,286.3126 538.8101,290.0966 Z M908.4101,535.4806 C901.2161,538.4206 895.0711,540.6016 889.2221,543.3996 C880.2261,547.7026 871.4811,552.5286 862.5411,556.9516 C850.6661,562.8266 838.7431,568.6066 826.7701,574.2786 C815.6671,579.5386 804.4681,584.5936 793.3231,589.7656 C792.1711,590.3006 791.1031,591.0206 790.0901,591.6016 C790.1561,597.7756 794.4901,597.5646 798.2221,597.5976 C820.2121,597.7936 842.2111,597.5356 864.1901,598.0836 C874.4131,598.3376 883.0531,595.4036 891.2591,590.0696 C897.0131,587.4116 902.7671,584.7546 908.6671,582.0306 C908.9231,566.4996 909.7721,551.5596 908.4101,535.4806 Z M292.9211,597.3696 C290.4551,596.9786 288.4671,596.3936 286.4781,596.3886 C259.8591,596.3206 233.2411,596.3076 206.6231,596.3686 C203.9831,596.3746 201.2321,596.5926 198.7301,597.3586 C192.8081,599.1716 186.9641,601.2676 181.1671,603.4576 C177.0931,604.9966 173.1481,606.8796 169.1461,608.6086 C169.1111,608.4746 169.0761,608.3396 169.0411,608.2056 C160.5521,610.9776 152.0631,613.7496 143.2611,616.6246 C143.2611,626.8186 143.1371,636.7756 143.3221,646.7256 C143.3951,650.6596 146.5881,652.8816 150.7891,651.6236 C160.2921,648.7786 169.6841,645.5526 179.0801,642.3616 C188.5381,639.1486 197.9101,635.6816 207.3841,632.5226 C218.0121,628.9776 228.7441,625.7436 239.3731,622.2006 C247.7851,619.3976 256.0991,616.2986 264.4781,613.3926 C273.3761,610.3066 282.3011,607.2936 291.2981,604.2206 C291.8121,602.0526 292.2591,600.1646 292.9211,597.3696 Z M599.0081,289.2876 C599.8581,282.7226 601.1471,277.0616 601.2121,271.3876 C601.3451,259.5756 600.5701,247.7546 600.6391,235.9406 C600.7511,216.6886 602.0091,197.3436 593.2921,179.2506 C592.0751,176.7236 590.0301,174.1306 590.0251,171.5646 C590.0041,159.8476 582.1441,151.0446 579.5631,139.9436 L544.8061,139.9436 C544.8061,142.1776 544.4671,143.8786 544.8701,145.3806 C546.0161,149.6476 547.4841,153.8276 548.7881,158.0536 C550.8641,164.7836 552.7411,171.5786 555.0121,178.2416 C557.6641,186.0236 560.8401,193.6286 563.4421,201.4256 C567.0491,212.2306 570.2401,223.1746 573.7991,233.9966 C575.1951,238.2436 577.1011,242.3236 578.7731,246.4786 C578.6691,246.5066 578.5641,246.5336 578.4591,246.5606 C583.0211,260.2116 587.5831,273.8626 592.2391,287.7946 C594.2511,288.2386 596.1101,288.6486 599.0081,289.2876 Z M908.3931,597.1906 C910.7771,597.5146 912.3971,597.9246 914.0181,597.9266 C939.0121,597.9556 964.0121,598.2526 988.9921,597.6986 C995.3321,597.5566 1001.6411,594.7706 1007.9071,592.9976 C1012.1711,591.7916 1016.2791,589.3366 1020.5581,589.0736 C1025.2721,588.7836 1029.1811,587.3476 1033.1511,585.1916 C1035.2801,584.0356 1037.7341,583.4806 1040.0381,582.6436 C1045.5961,580.6236 1051.1511,578.5966 1056.6001,576.6116 L1056.6001,541.5266 L1049.3941,541.5266 L1049.5731,542.0706 C1002.4501,557.8466 955.3281,573.6236 907.5491,589.6206 C907.8041,591.9116 908.0671,594.2756 908.3931,597.1906 Z M615.6021,929.7986 C612.7591,921.0776 610.0251,912.6946 606.9281,903.1946 C603.9731,904.2746 601.0551,905.3396 598.4491,906.2916 C598.9191,910.4056 599.5171,913.2006 599.5111,915.9926 C599.4771,929.6376 599.0731,943.2846 599.2091,956.9276 C599.3321,969.3806 599.2491,981.9116 600.6651,994.2466 C601.5331,1001.8166 604.9281,1009.1216 607.4041,1016.4726 C611.6151,1028.9746 615.9961,1041.4186 620.3351,1053.9706 L653.2101,1053.9706 C656.2081,1051.2736 655.0171,1047.3136 653.9911,1043.8146 C651.1251,1034.0286 647.9591,1024.3256 644.7031,1014.6586 C640.9751,1003.5906 636.8841,992.6426 633.2001,981.5596 C628.6401,967.8336 624.3941,954.0036 619.8821,940.2626 C618.7201,936.7246 617.0691,933.3486 615.6021,929.7986 Z M745.6441,444.7346 C752.4361,439.3896 755.3551,431.5386 756.4621,424.0356 C758.0741,413.1026 757.4321,401.8146 757.4831,390.6776 C757.5891,368.0966 757.5161,345.5146 757.5161,322.9206 C755.9561,321.6056 754.6061,320.4676 752.0781,318.3366 C746.7231,327.2766 741.6431,335.7546 736.5621,344.2336 C734.4311,349.8466 731.7931,355.1996 728.9771,360.4566 C722.8781,371.8406 716.6881,383.1746 710.5361,394.5296 C703.5211,407.4786 696.4201,420.3826 689.5531,433.4096 C687.8231,436.6906 686.8471,440.3696 685.1961,444.7346 L745.6441,444.7346 Z M444.1921,511.1706 C447.7791,509.4406 448.7041,506.2556 448.7011,502.5746 C448.6891,486.5886 448.6971,470.6036 448.6111,454.6176 C448.6031,453.2006 448.4171,450.9696 447.5591,450.5016 C440.9641,446.9086 434.2571,440.9456 427.4461,440.7576 C392.0011,439.7766 356.5151,440.2766 321.0431,440.3496 C319.4881,440.3526 317.9351,441.2226 316.3811,441.6886 C316.2791,442.3006 316.1781,442.9116 316.0761,443.5236 C358.6011,465.9766 401.1251,488.4306 444.1921,511.1706 Z M442.1261,883.5626 C444.1071,882.3436 445.0651,882.0886 445.4231,881.4806 C447.9501,877.1856 450.4521,872.8696 452.7791,868.4636 C458.2511,858.1066 463.5891,847.6776 469.0391,837.3086 C474.6341,826.6636 480.3821,816.0996 485.8961,805.4136 C489.1151,799.1756 491.7051,792.6006 495.1151,786.4756 C500.2981,777.1636 506.2051,768.2506 511.2401,758.8656 C512.7501,756.0526 512.3771,752.2296 512.9331,748.4186 C509.6851,747.9896 507.9201,747.5656 506.1501,747.5506 C491.3211,747.4236 476.4891,747.2026 461.6641,747.4166 C457.9501,747.4706 454.2581,748.9936 450.5571,749.8416 C450.8181,750.3596 451.0811,750.8776 451.3441,751.3956 C448.4981,756.5716 445.6521,761.7456 442.1261,768.1606 L442.1261,883.5626 Z M865.1101,740.7226 C865.1931,740.5556 865.2761,740.3886 865.3601,740.2216 C828.9121,720.9976 792.4641,701.7746 756.5241,682.8186 C754.0791,684.0966 752.7771,684.7776 751.2871,685.5566 C751.2871,701.3086 751.4381,716.9446 751.2161,732.5756 C751.1201,739.2466 750.0731,745.9876 759.5061,747.0406 C760.0181,747.0986 760.3621,748.0766 760.9191,748.3856 C767.5251,752.0526 774.3671,754.6346 782.1571,754.6046 C814.4431,754.4776 846.7311,754.5656 879.0181,754.5236 C880.7351,754.5216 882.4511,754.0576 885.6661,753.5916 C884.1401,751.1896 883.5571,749.0676 882.2411,748.4096 C876.6491,745.6116 870.8401,743.2456 865.1101,740.7226 Z M799.1061,442.6086 C802.4851,443.6476 804.4231,444.7526 806.3631,444.7596 C823.3381,444.8166 840.3131,444.7136 857.2871,444.5786 C863.4701,444.5296 868.2191,441.7916 872.3261,437.0936 C877.2261,431.4896 882.7391,426.4226 887.9861,421.1236 C889.1221,420.2606 889.6691,418.7896 890.6851,417.7996 C895.6521,412.9576 900.8831,408.3776 905.7151,403.4086 C907.3271,401.7516 908.9751,399.2276 909.0061,397.0766 C909.2681,379.3266 909.1541,361.5726 909.1541,343.9246 C900.1091,340.4376 897.7181,341.1936 891.5241,348.1136 C887.6101,352.4876 883.2131,356.4276 879.0351,360.5656 C864.9371,374.5306 850.8511,388.5056 836.7431,402.4606 C826.1911,412.8976 815.5391,423.2346 805.1081,433.7916 C802.9381,435.9876 801.5511,438.9566 799.1061,442.6086 Z M786.5631,894.5966 C786.3571,894.8056 786.1501,895.0136 785.9431,895.2226 C788.7681,897.7356 791.4421,900.4516 794.4751,902.6826 C796.2221,903.9666 798.5421,905.1916 800.6121,905.2036 C818.4121,905.3136 836.2161,905.1986 854.0151,904.9586 C855.7541,904.9356 858.3261,904.0666 858.9731,902.8016 C859.6601,901.4576 858.8101,899.0506 858.0801,897.3416 C857.4561,895.8796 856.1371,894.6686 854.9821,893.4866 C847.8931,886.2246 840.7991,878.9676 833.6381,871.7766 C827.2691,865.3826 820.8101,859.0796 814.3971,852.7316 C804.5831,843.0156 794.7761,833.2906 784.9591,823.5776 C776.2781,814.9896 767.6251,806.3706 758.8611,797.8676 C757.4631,796.5096 755.5511,795.6816 752.6381,793.8166 C752.0221,797.3756 751.3501,799.4976 751.3381,801.6236 C751.2471,818.2686 751.5861,834.9226 751.1251,851.5546 C750.9501,857.8686 752.9991,862.3696 757.5061,866.3706 C761.3491,869.7836 764.9381,873.4846 768.5561,877.1416 C770.2701,878.8756 771.6521,880.9486 773.4201,882.6186 C777.7271,886.6886 782.1741,890.6136 786.5631,894.5966 Z M292.0831,793.9756 L292.0831,857.7896 C294.8821,856.9776 296.9911,856.9776 298.1421,855.9276 C303.8881,850.6886 309.4671,845.2556 314.9501,839.7376 C327.9191,826.6826 340.8021,813.5406 353.7181,800.4326 C367.6421,786.3026 381.5661,772.1746 395.4811,758.0356 C397.9781,755.4986 398.5831,752.6726 396.0461,748.3736 C377.1651,746.0936 357.5491,748.0146 335.7651,747.0846 C329.1111,754.2556 321.7301,762.4836 314.0391,770.4096 C308.3921,776.2286 302.3371,781.6536 296.4631,787.2536 C296.1501,786.9346 295.8371,786.6146 295.5231,786.2946 C294.1721,789.3126 292.8201,792.3296 292.0831,793.9756 Z M445.3531,401.0056 C446.2731,400.4646 447.1921,399.9226 448.1121,399.3816 C448.3161,397.1516 448.6931,394.9226 448.6961,392.6926 C448.7181,376.5456 447.8201,360.3396 448.9491,344.2746 C449.6261,334.6396 444.3761,329.3276 438.9381,323.5956 C432.0521,316.3346 424.7741,309.4426 417.6261,302.4326 C414.2191,299.0906 410.9051,295.6136 407.2201,292.6026 C401.0511,287.5626 393.6331,287.0466 386.0021,287.3006 C372.9441,287.7336 359.8761,287.8406 346.8211,288.3316 C344.7931,288.4086 342.8141,289.7926 339.4961,291.0856 C353.0601,311.1326 372.6841,323.9656 386.0701,342.4536 C387.7611,342.9426 389.5001,343.4446 391.2391,343.9466 C391.0221,344.1806 390.8061,344.4156 390.5891,344.6496 C405.0881,359.5656 419.5871,374.4816 434.0861,389.3976 C433.7901,389.6806 433.4931,389.9646 433.1971,390.2476 C435.7201,391.3946 438.2431,392.5416 440.7671,393.6886 C440.3221,394.1206 439.8791,394.5516 439.4351,394.9826 C441.4071,396.9906 443.3811,398.9976 445.3531,401.0056 Z M917.2941,437.5686 C916.2461,443.2026 918.3371,444.9576 922.8301,444.9366 C941.6601,444.8486 960.4901,444.9006 979.3201,444.8126 C980.7301,444.8056 982.3091,444.3926 983.5161,443.6756 C990.0001,439.8216 996.5871,436.0926 1002.7781,431.8016 C1020.5511,419.4816 1038.1511,406.9126 1056.5111,393.9536 L1056.5111,342.0196 C1009.5901,374.2226 963.3281,405.9736 917.2941,437.5686 Z M837.5051,1027.8146 C837.5761,1027.5736 837.6481,1027.3306 837.7201,1027.0886 C820.8351,1002.9386 803.9501,978.7866 787.0651,954.6366 C787.2801,954.4906 787.4951,954.3446 787.7111,954.1986 C782.0911,946.0846 776.4721,937.9706 770.8521,929.8566 C765.9241,922.3016 762.0901,913.9286 751.8951,909.4936 L751.8951,979.6946 C763.7461,996.6966 775.1451,1013.0516 786.5451,1029.4076 C790.7401,1035.4016 795.6721,1041.0136 799.0741,1047.4366 C802.2451,1053.4236 806.8491,1053.6946 812.3651,1053.7086 C819.9811,1053.7296 827.6001,1054.4126 835.2111,1054.3146 C840.7221,1054.2436 846.2211,1053.3646 852.4841,1052.7736 C850.6461,1045.4706 847.5331,1039.8326 842.8361,1034.9646 C841.0591,1032.5806 839.2821,1030.1986 837.5051,1027.8146 Z M143.2121,800.1776 C142.6731,816.4226 141.3691,832.2946 144.7221,848.3256 C147.9841,847.3196 150.2521,847.0896 151.9821,846.0026 C159.0761,841.5476 166.1181,836.9896 172.9691,832.1686 C181.6511,826.0596 189.9941,819.4656 198.7221,813.4256 C215.4881,801.8256 232.4361,790.4886 249.2821,779.0026 C261.1201,770.9326 272.9571,762.8606 284.6741,754.6176 C286.3351,753.4486 287.3141,751.3086 288.6091,749.6186 L287.8251,747.9686 C284.4801,747.9686 281.1361,747.9966 277.7911,747.9646 C259.3241,747.7836 240.8571,747.5576 222.3901,747.4496 C220.8341,747.4406 219.0271,747.8116 217.7541,748.6446 C207.4021,755.4196 197.1351,762.3266 186.8711,769.2346 C179.2041,774.3946 171.4991,779.5046 163.9581,784.8446 C156.9631,789.7966 150.1621,795.0246 143.2121,800.1776 Z M445.4971,287.1926 L447.4481,286.7296 C447.8691,284.4476 448.6431,282.1676 448.6541,279.8836 C448.7511,260.2236 448.9211,240.5606 448.5291,220.9086 C448.4531,217.0786 446.6371,212.9286 444.5761,209.5676 C440.6191,203.1106 435.8741,197.1396 431.5271,190.9186 C427.3991,185.0126 423.3301,179.0646 419.2921,173.0956 C413.4031,164.3896 407.5661,155.6486 401.7071,146.9226 C401.6681,147.0156 401.6291,147.1086 401.5911,147.2016 C399.5361,144.4196 397.4811,141.6376 395.7591,139.3046 C380.2701,139.3046 365.7801,139.2256 351.2921,139.3866 C349.0341,139.4116 346.7891,140.5286 344.7561,141.0816 C351.5781,150.8866 357.9331,160.0196 364.2881,169.1516 C371.3391,179.2836 378.4931,189.3456 385.3971,199.5756 C388.6611,204.4116 391.1321,209.7966 394.5261,214.5286 C399.3781,221.2936 405.0941,227.4486 409.8221,234.2916 C419.4941,248.2896 428.7361,262.5836 438.1931,276.7316 C440.5561,280.2666 443.0591,283.7076 445.4971,287.1926 Z M903.5111,860.7006 C913.8271,867.6676 923.9991,874.5396 934.1701,881.4106 C936.7081,883.3026 939.6691,884.6596 942.3351,886.4566 C947.5611,889.9786 952.4491,894.0256 957.8001,897.3316 C963.5481,900.8846 968.6371,905.2686 976.5051,905.0576 C997.9571,904.4816 1019.4361,904.9186 1040.9041,904.9516 C1045.9621,904.9586 1051.0201,904.9516 1055.8491,904.9516 C1058.0221,898.5716 1054.0191,896.2326 1050.4901,893.8076 C1039.1461,886.0126 1027.7801,878.2486 1016.3361,870.6036 C1005.3571,863.2686 994.2671,856.1016 983.2311,848.8506 C974.8551,843.3456 966.4121,837.9366 958.1431,832.2756 C951.9631,828.0436 946.0961,823.3566 939.9371,819.0906 C932.5361,813.9646 925.0251,808.9906 917.4561,804.1146 C914.4711,802.1926 911.1981,800.7146 908.1761,799.0986 C906.1461,800.3956 904.7871,801.2636 903.5111,802.0776 L903.5111,860.7006 Z M397.6531,901.5266 C394.3301,900.8996 392.0371,900.1146 389.7371,900.0906 C373.5781,899.9306 357.4161,899.8006 341.2591,899.9996 C338.6641,900.0326 335.0031,900.9756 333.6861,902.8196 C326.1841,913.3306 319.2331,924.2376 312.1131,935.0216 C307.4871,942.0276 303.2861,949.3606 298.1501,955.9686 C294.3491,960.8606 291.4371,965.8716 291.3671,972.0096 C291.1641,989.6696 291.2401,1007.3346 291.2161,1024.9976 C291.2051,1033.4796 291.2141,1041.9596 291.2141,1051.0756 C293.4631,1051.8056 295.5221,1052.4746 297.4771,1053.1096 C299.3081,1051.1686 300.9101,1049.8826 301.9971,1048.2526 C309.4011,1037.1476 316.6651,1025.9496 324.0351,1014.8206 C333.8051,1000.0676 343.5471,985.2956 353.4601,970.6406 C359.5241,961.6736 365.9491,952.9506 372.1021,944.0416 C378.2431,935.1466 384.4731,926.2976 390.2141,917.1466 C393.0481,912.6296 394.8671,907.4766 397.6531,901.5266 Z M295.2461,332.6086 C294.3611,331.8166 293.4551,330.8056 292.3661,330.0636 C274.7581,318.0596 257.2241,305.9446 239.4531,294.1876 C232.5361,289.6116 224.8601,287.0526 216.2271,287.2136 C199.0711,287.5336 181.9041,287.1756 164.7451,287.3986 C157.9931,287.4866 151.2501,288.3796 144.7281,288.8886 C143.0891,294.6526 144.9261,297.8236 149.8731,300.7046 C157.2571,305.0036 164.4891,309.5916 171.5651,314.3806 C181.2891,320.9626 190.7111,327.9916 200.4421,334.5636 C210.5241,341.3726 220.8771,347.7786 231.0031,354.5236 C237.2871,358.7096 243.2981,363.3016 249.5561,367.5276 C260.3131,374.7896 271.1481,381.9376 281.9901,389.0736 C285.9301,391.6656 289.9831,394.0836 295.2461,397.3686 L295.2461,332.6086 Z M863.6881,294.0676 C866.1791,290.5046 869.2641,286.2546 872.1791,281.8916 C882.9251,265.8096 893.5891,249.6726 904.3431,233.5966 C907.1431,229.4096 909.3351,225.1866 909.2881,219.8806 C909.1171,200.9106 909.1771,181.9396 909.1541,162.9686 C909.1461,156.2346 909.1531,149.5006 909.1531,142.9866 C903.8901,141.3326 900.7681,141.7496 898.0201,146.0756 C890.6591,157.6656 882.8171,168.9506 875.1031,180.3146 C867.6121,191.3506 860.0261,202.3236 852.5111,213.3436 C844.6371,224.8896 836.8231,236.4776 828.9351,248.0126 C819.8481,261.2986 810.6611,274.5166 801.6521,287.8546 C800.6531,289.3346 800.5301,291.4056 799.7451,294.0676 L863.6881,294.0676 Z M907.4211,910.7016 C906.6981,910.7936 905.9751,910.8856 905.2511,910.9776 C904.6091,913.3296 903.4221,915.6796 903.4131,918.0346 C903.3511,936.1816 903.5851,954.3296 903.5581,972.4776 C903.5521,976.5376 905.8241,978.8546 908.6791,980.9866 C909.8501,981.8616 911.2531,982.4846 912.2661,983.5056 C920.0571,991.3646 927.6641,999.4076 935.5581,1007.1586 C941.2041,1012.7056 947.3971,1017.6986 953.0031,1023.2826 C962.1331,1032.3786 970.9511,1041.7886 979.9911,1050.9766 C981.0841,1052.0856 982.6971,1053.2366 984.1461,1053.3466 C990.4391,1053.8236 996.7621,1054.0946 1003.0741,1054.1196 C1016.5191,1054.1746 1029.9671,1054.0806 1043.4121,1053.8886 C1044.7831,1053.8676 1046.1401,1052.7596 1048.6771,1051.6356 C1046.5181,1048.8916 1045.0711,1046.8536 1043.4251,1044.9936 C1039.0801,1040.0856 1031.9601,1037.5606 1030.8791,1029.8996 C1029.3011,1029.4566 1027.9021,1029.0646 1027.6631,1028.9966 C996.0311,997.7336 965.2061,967.2666 933.7071,936.1336 C933.4901,935.4596 932.9441,933.7626 932.3981,932.0666 C931.9891,932.4046 931.5811,932.7436 931.1721,933.0816 L907.4211,910.7016 Z M910.9501,291.6346 C911.1651,292.3186 911.3801,293.0026 911.5961,293.6876 C913.4041,294.0216 915.2111,294.6376 917.0211,294.6446 C935.8401,294.7206 954.6581,294.6546 973.4771,294.7346 C978.3371,294.7546 982.0081,293.3616 983.0531,288.3536 C984.4841,287.3156 985.8471,286.5966 986.8651,285.5446 C993.9821,278.1986 1000.9381,270.6966 1008.1191,263.4136 C1016.5551,254.8586 1025.9081,247.2776 1033.6111,237.9066 C1038.2971,232.2076 1044.3641,227.6406 1049.8361,222.5926 C1053.7421,218.9866 1057.4151,215.6126 1057.2821,209.3696 C1056.8841,190.7356 1057.0221,172.0906 1056.8481,153.4506 C1056.8331,151.8496 1056.0491,150.2576 1055.6201,148.6556 C1007.0671,196.6406 959.0091,244.1376 910.9501,291.6346 Z M222.2111,900.3106 C207.9461,909.1366 200.9801,924.6616 186.9531,932.6396 C186.6791,932.7956 186.4961,933.1166 186.2781,933.3666 C180.8391,939.6386 175.6921,946.1966 169.8891,952.1096 C163.0881,959.0386 155.3461,965.0646 148.7561,972.1726 C145.7131,975.4536 142.7541,980.3316 142.6501,984.5576 C142.1871,1003.5126 142.7221,1022.4926 143.0481,1041.4626 C143.0731,1042.9336 144.2621,1044.3846 144.9481,1045.9316 C192.3921,997.5506 240.5641,951.1116 287.2311,903.1646 C283.1431,899.2726 252.0221,898.3856 222.2111,900.3106 Z M295.6041,219.0396 C269.4031,192.3626 244.3531,166.8586 217.8111,139.8356 C196.3761,139.4966 173.0341,138.4666 149.6241,141.2526 C197.9231,188.4876 244.3171,236.8836 292.5341,283.5236 C296.1991,279.3316 297.5621,231.8356 295.6041,219.0396 Z M291.0001,1195.9996 L182.0001,1195.9996 C182.6521,1194.0466 182.8961,1191.8086 184.0281,1190.1906 C188.6041,1183.6426 193.4541,1177.2856 198.2031,1170.8596 C204.4621,1161.9676 211.1621,1153.3886 217.7551,1144.7276 C221.8611,1139.3336 225.7651,1133.7866 229.8351,1128.3666 C234.6701,1121.9276 239.7291,1115.6546 244.4241,1109.1176 C248.7221,1103.1326 252.4081,1096.7016 256.8171,1090.8066 C264.8031,1080.1276 273.1941,1069.7526 281.2451,1059.1216 C282.7081,1057.1906 283.3591,1054.6426 284.7851,1051.4956 L221.5581,1051.4956 C216.3521,1058.1286 210.7351,1065.0016 205.4471,1072.1196 C201.5781,1077.3276 198.3791,1083.0386 194.4631,1088.2076 C185.4961,1100.0426 176.2011,1111.6296 167.1811,1123.4246 C161.8971,1130.3326 157.1201,1137.6356 151.6911,1144.4216 C145.2871,1152.4316 141.3971,1160.8666 142.3251,1171.5616 C143.0241,1179.6376 142.1651,1187.8486 142.0001,1195.9996 L37.0001,1195.9996 C37.7431,1194.3906 38.1391,1192.4546 39.2891,1191.2276 C44.1821,1186.0136 49.2761,1180.9876 54.3361,1175.9326 C66.3551,1163.9246 78.4141,1151.9566 90.4221,1139.9396 C96.6491,1133.7066 102.7821,1127.3816 108.9961,1121.1366 C114.5251,1115.5806 119.9981,1109.9626 125.6941,1104.5806 C132.6341,1098.0236 139.7811,1091.6846 144.8191,1087.0906 C144.8191,1075.7206 145.0191,1067.5756 144.7071,1059.4496 C144.6021,1056.7066 143.2031,1054.0146 142.3211,1051.0546 C131.9061,1051.0546 122.4221,1050.8496 112.9581,1051.2066 C110.7501,1051.2906 108.2151,1052.8666 106.5171,1054.4806 C100.1871,1060.4946 94.1601,1066.8276 87.9881,1073.0096 C72.5101,1088.5116 57.0041,1103.9876 41.5291,1119.4916 C30.3051,1130.7396 19.1711,1142.0766 7.8541,1153.2306 C5.5641,1155.4866 2.6351,1157.0936 0.0001,1158.9996 L0.0001,1030.9996 C7.3731,1032.6026 10.3121,1025.9376 14.8661,1022.6536 C27.7261,1013.3756 40.1131,1003.4486 52.7921,993.9166 C59.5071,988.8676 66.5631,984.2726 73.2471,979.1836 C83.7691,971.1716 94.0231,962.8096 104.5421,954.7936 C116.5031,945.6776 128.6491,936.8056 140.6481,927.7396 C141.6131,927.0096 142.1861,925.6546 142.7261,924.4896 C146.1111,917.1686 144.8571,909.5856 144.1341,901.5946 C142.5311,901.0626 141.0221,900.1606 139.4901,900.1186 C130.6781,899.8766 121.8451,899.5036 113.0531,899.9106 C109.9791,900.0536 106.8011,901.9596 104.0351,903.6566 C100.8571,905.6066 98.1291,908.2756 95.1281,910.5286 C84.6821,918.3696 74.1511,926.0976 63.7501,933.9986 C54.2041,941.2516 44.8011,948.6966 35.3011,956.0116 C28.6011,961.1716 22.1201,966.6926 15.0161,971.2286 C9.9841,974.4426 6.8961,980.7116 0.0001,980.9996 L0.0001,836.9996 C3.9771,835.8226 8.2301,835.1956 11.8821,833.3686 C24.4901,827.0596 36.8701,820.2976 49.3721,813.7766 C60.5171,807.9626 71.7281,802.2776 82.8711,796.4596 C88.9551,793.2846 94.9561,789.9516 100.9961,786.6886 C104.1731,785.2116 107.7771,784.4206 110.9601,782.8016 C118.4651,778.9856 125.8641,774.9346 133.1151,770.6556 C136.8531,768.4506 141.3041,766.2486 143.4361,762.8086 C146.6021,757.7016 145.1581,747.7196 138.2751,747.5476 C125.3201,747.2246 112.3521,747.4546 101.0571,747.4546 C93.2341,751.8976 86.9141,755.7276 80.3771,759.1416 C70.7341,764.1776 60.8961,768.8406 51.2161,773.8096 C44.7521,777.1266 38.4781,780.8156 32.0081,784.1186 C26.9081,786.7236 21.6421,789.0046 16.4421,791.4136 C10.9661,793.9516 5.4811,796.4726 0.0001,798.9996 L0.0001,650.9996 C3.4481,650.5596 6.9841,650.4676 10.3271,649.6136 C21.1871,646.8366 31.9731,643.7656 42.7961,640.8386 C48.0721,639.4116 53.3651,638.0456 58.6541,636.6646 C73.0181,632.9136 87.3941,629.2076 101.7431,625.4006 C106.6691,624.0936 111.5241,622.5176 116.4241,621.1076 C121.6281,619.6096 126.8541,618.1896 132.0571,616.6866 C136.2591,615.4736 140.4391,614.1876 144.8541,612.8666 C144.6481,608.3856 144.5391,604.7496 144.2971,601.1226 C144.0811,597.8596 141.9921,596.2056 138.9651,596.4066 C118.8541,597.7416 98.5571,593.1686 78.5381,599.6286 C65.3061,603.8976 51.4421,606.1986 37.8811,609.4606 C33.5501,610.5026 29.3031,611.8926 24.9791,612.9686 C16.6671,615.0366 8.3281,616.9956 0.0001,618.9996 L0.0001,447.9996 C0.9771,447.9486 2.1411,447.5206 2.9011,447.9016 C10.6691,451.7886 18.3731,455.8076 26.0931,459.7896 C26.1141,459.7366 26.1341,459.6826 26.1541,459.6296 C47.2251,470.4416 68.2951,481.2546 89.3651,492.0666 C107.2821,501.4346 125.3651,510.5056 143.4371,519.5956 L145.1291,518.4446 L145.1291,462.0886 C152.7271,464.1346 159.0721,465.5826 165.2461,467.5636 C176.3931,471.1396 187.4611,474.9656 198.5171,478.8196 C206.6541,481.6566 214.7281,484.6746 222.8061,487.6796 C225.1201,488.5406 227.4121,490.6136 229.6001,490.4626 C240.4581,489.7186 249.1921,496.1656 259.0531,498.7116 C269.2431,501.3426 279.0631,505.3846 289.1001,508.6386 C291.0031,509.2566 293.1621,509.0806 295.5341,509.3016 L295.5341,440.2656 C293.0871,440.2656 291.2711,440.2656 289.4551,440.2656 C201.1271,440.2616 112.7991,440.2626 24.4711,440.2416 C16.3141,440.2396 8.1571,440.0836 0.0001,439.9996 L0.0001,328.9996 C0.9661,329.1176 2.0731,328.9686 2.8751,329.3936 C14.9871,335.8206 27.0361,342.3656 39.1451,348.7946 C54.8221,357.1176 70.5531,365.3356 86.2351,373.6476 C101.6111,381.7976 116.8951,390.1256 132.3611,398.0996 C135.7851,399.8646 139.8051,400.4706 145.1271,402.0896 C145.1271,396.2006 145.1001,392.1566 145.1321,388.1116 C145.2541,372.6176 145.3801,357.1236 145.5401,341.6296 C145.5831,337.4766 144.7891,334.3346 139.9411,332.9716 C136.3721,331.9696 133.1711,329.6156 129.8461,327.7926 C121.6971,323.3246 113.6781,318.6056 105.4121,314.3676 C90.6661,306.8096 75.9461,299.1596 60.8651,292.3216 C54.8771,289.6076 48.0151,287.9526 41.4481,287.5696 C27.6681,286.7636 13.8201,287.1206 0.0001,286.9996 L0.0001,177.9996 C6.6341,182.1716 13.5691,185.9386 19.8351,190.6046 C30.1751,198.3036 39.4891,207.5166 50.3151,214.3926 C65.8551,224.2646 78.8231,237.7116 95.3871,246.0486 C96.0361,246.3756 96.2681,247.4426 96.8531,247.9976 C98.5201,249.5776 100.1721,251.2006 102.0021,252.5766 C110.9251,259.2876 119.8291,266.0296 128.8971,272.5396 C133.3761,275.7556 138.1981,278.4936 144.1021,282.2306 C144.7051,277.4916 145.4471,274.3026 145.4601,271.1106 C145.5271,255.1216 145.4921,239.1306 145.2381,223.1446 C145.2041,221.0376 144.3001,218.2176 142.7791,216.9896 C136.6341,212.0256 130.1201,207.5126 123.6821,202.9186 C119.1411,199.6796 114.3821,196.7356 109.9291,193.3826 C96.7291,183.4436 83.6741,173.3106 70.4771,163.3676 C63.7421,158.2926 56.4461,153.8966 50.0931,148.3966 C43.7171,142.8746 37.4591,138.7366 28.4361,139.2556 C18.9931,139.7996 9.4811,139.1356 0.0001,138.9996 L0.0001,32.9996 C6.5131,38.9496 13.1741,44.7456 19.4961,50.8916 C25.7341,56.9556 31.5901,63.4116 37.6901,69.6196 C40.8041,72.7886 44.0841,75.7936 48.1311,79.6806 C48.1511,79.7706 48.4621,81.2026 48.4801,81.2876 C55.3341,87.7806 61.2681,93.4026 68.4851,100.2416 C70.1111,101.9396 72.9011,105.0186 75.8681,107.9176 C82.8391,114.7296 90.6421,120.8516 96.7171,128.3766 C103.5131,136.7936 110.2701,142.7786 122.1181,141.0446 C129.3941,139.9786 136.9551,140.8466 145.1441,140.8466 L145.1441,110.3046 C136.5861,100.7016 130.1171,92.9696 123.1401,85.7266 C113.0611,75.2626 102.6251,65.1426 92.3191,54.8986 C86.2371,48.8536 80.0691,42.8926 74.0121,36.8226 C65.0281,27.8176 56.0901,18.7676 47.1721,9.6976 C44.0541,6.5256 41.0541,3.2356 38.0001,-0.0004 L164.0001,-0.0004 C166.1071,2.7076 168.2141,5.4156 170.3211,8.1236 C170.2851,8.1536 170.2481,8.1826 170.2111,8.2126 C203.7601,52.3476 237.3101,96.4826 270.7891,140.5266 L295.5151,140.5266 C295.5151,128.5706 295.5331,116.9826 295.4751,105.3946 C295.4711,104.6266 295.0491,103.7406 294.5601,103.1136 C287.6391,94.2336 280.7111,85.3576 273.7051,76.5446 C267.7951,69.1096 261.5921,61.8996 255.8791,54.3186 C251.5891,48.6246 248.1791,42.2626 243.8291,36.6206 C237.0081,27.7726 229.5641,19.4046 222.7251,10.5696 C220.3041,7.4436 218.8791,3.5456 217.0001,-0.0004 L360.0001,-0.0004 C360.8581,2.4816 361.4551,5.0936 362.6211,7.4216 C367.1211,16.4076 371.7921,25.3086 376.4231,34.2296 C379.2671,39.7076 382.1531,45.1626 385.0201,50.6286 C385.0911,50.5886 385.1621,50.5496 385.2331,50.5106 C388.9941,58.4776 392.7551,66.4446 396.5171,74.4116 C396.6691,74.3426 396.8221,74.2716 396.9761,74.2016 C408.1611,96.1786 419.3471,118.1546 430.7481,140.5556 C435.9351,141.0636 441.4871,141.6086 448.4081,142.2876 C449.0191,127.3606 448.5691,112.8526 448.7161,99.3136 C447.2511,96.8696 446.0831,95.2986 445.3061,93.5536 C443.2361,88.9076 441.5281,84.0916 439.3041,79.5236 C437.5331,75.8886 435.0391,72.6116 433.1701,69.0176 C427.2421,57.6246 421.4561,46.1586 415.6151,34.7216 C410.5281,24.7576 405.3781,14.8256 400.4281,4.7936 C399.7661,3.4516 400.1181,1.6106 400.0001,-0.0004 L545.0001,-0.0004 C557.5661,46.7976 570.1331,93.5956 582.7911,140.7356 L599.7301,140.7356 C600.0261,138.8566 600.4691,137.2826 600.4921,135.7016 C600.6911,122.5696 601.0821,109.4306 600.8321,96.3056 C600.7231,90.5506 599.6031,84.7426 598.3181,79.1006 C596.8981,72.8696 594.7781,66.7966 592.9321,60.6646 C591.9351,57.3566 590.7021,54.1106 589.8711,50.7626 C587.1791,39.9176 584.5861,29.0476 582.0291,18.1686 C580.6091,12.1306 579.3381,6.0576 578.0001,-0.0004 L749.0001,-0.0004 C747.1691,3.7546 745.4151,7.5486 743.4881,11.2526 C740.7271,16.5606 737.8381,21.8016 735.0041,27.0716 C729.5321,39.0536 723.3531,50.6506 717.4151,62.3676 C712.5461,71.9736 708.0591,81.7726 703.2161,91.3916 C700.2861,97.2086 696.9471,102.8186 693.8971,108.5766 C692.3691,111.4616 691.0771,114.4706 689.6791,117.4226 C689.4271,117.3146 689.1741,117.2056 688.9221,117.0976 C686.4231,123.0226 683.9241,128.9486 681.3601,135.0226 C682.4901,139.7056 685.7521,141.6386 690.4721,141.6376 C705.4091,141.6336 720.3461,141.6356 736.8591,141.6356 C735.5141,145.1426 734.3811,147.8056 733.4621,150.5406 C730.7131,158.7226 728.1021,166.9526 725.3321,175.1276 C722.7501,182.7456 719.9521,190.2916 717.3971,197.9196 C715.0021,205.0706 712.8351,212.2966 710.5071,219.4706 C706.5791,231.5746 702.7111,243.6986 698.6071,255.7426 C696.0121,263.3616 692.8181,270.7786 690.3031,278.4216 C688.6651,283.3976 687.7631,288.6166 686.3651,294.4106 C689.7321,294.5616 691.5231,294.7106 693.3141,294.7126 C711.4801,294.7316 729.6461,294.7306 747.8121,294.7236 C749.4781,294.7236 751.1491,294.7216 752.8081,294.5926 C756.2261,294.3266 757.7561,292.4746 757.7401,288.9946 C757.6451,268.8496 757.6451,248.7046 757.5941,228.5606 C757.4001,152.3736 757.1981,76.1866 757.0001,-0.0004 L867.0001,-0.0004 C864.9851,4.4706 863.1821,9.0506 860.9191,13.3906 C851.0621,32.2916 841.1101,51.1416 831.1181,69.9716 C824.1581,83.0876 817.0811,96.1426 810.0471,109.2206 C805.1471,118.3316 800.1521,127.3946 795.4021,136.5836 C794.5861,138.1626 794.7871,140.2666 794.5601,141.8296 L861.8361,141.8296 C869.6721,126.6996 876.9551,112.3086 884.5441,98.0816 C891.4961,85.0476 898.9441,72.2776 905.8031,59.1966 C907.5671,55.8286 908.7211,51.7446 908.8021,47.9616 C909.1461,31.9796 908.9791,15.9886 909.0001,-0.0004 L1018.0001,-0.0004 C1017.6021,1.0196 1017.4161,2.2026 1016.7731,3.0316 C1013.4491,7.3156 1009.8391,11.3846 1006.6391,15.7566 C993.4701,33.7456 980.5361,51.9096 967.2751,69.8316 C956.5311,84.3546 945.3141,98.5276 934.5571,113.0406 C928.4261,121.3106 922.7961,129.9506 916.6151,138.8946 C917.6541,139.8636 918.4991,141.3596 919.4351,141.4176 C940.2521,142.7286 961.0351,142.2176 979.8181,141.2326 C985.1321,133.8166 989.0421,128.1866 993.1281,122.6886 C1008.6491,101.8026 1024.1911,80.9306 1039.8141,60.1206 C1043.1571,55.6686 1047.1461,51.6866 1050.3341,47.1356 C1053.5201,42.5846 1057.0571,38.1366 1056.9421,31.9306 C1056.7481,21.2916 1056.9591,10.6436 1057.0001,-0.0004 L1162.0001,-0.0004 C1157.3721,4.6416 1152.7051,9.2456 1148.1241,13.9326 C1140.2711,21.9676 1132.5211,30.1036 1124.6351,38.1056 C1116.4031,46.4586 1108.1101,54.7536 1099.7491,62.9756 C1093.8521,68.7736 1087.6931,74.3056 1081.8371,80.1426 C1074.3341,87.6216 1066.8981,95.1796 1059.6971,102.9476 C1057.7581,105.0396 1055.6791,107.9636 1055.5461,110.5996 C1055.0561,120.3716 1055.3511,130.1836 1055.3511,140.1716 C1056.8321,140.8046 1058.0031,141.7016 1059.2151,141.7596 C1067.4551,142.1536 1075.7271,142.8376 1083.9381,142.4276 C1087.4321,142.2526 1091.4951,140.4236 1094.1061,138.0396 C1102.9061,130.0076 1111.2031,121.4206 1119.6261,112.9786 C1123.7481,108.8466 1127.7221,104.5676 1131.7641,100.3546 C1131.7781,100.3836 1131.7931,100.4116 1131.8081,100.4406 C1147.0581,85.3906 1162.3071,70.3406 1178.5281,54.3316 C1178.7431,53.8496 1179.5521,52.0366 1180.3591,50.2246 C1183.7241,48.3376 1186.2511,45.6846 1188.9131,43.1756 C1191.8781,40.3826 1194.9661,37.7196 1198.0001,34.9996 L1198.0001,161.9996 C1196.6921,162.5756 1195.2241,162.9326 1194.1041,163.7626 C1189.2581,167.3566 1184.5141,171.0896 1179.7321,174.7716 C1176.9801,176.9926 1174.1131,178.9966 1171.3741,181.1626 C1166.0481,185.3736 1160.9021,189.8196 1155.4871,193.9096 C1143.4651,202.9906 1131.3661,211.9726 1119.2151,220.8826 C1107.6521,229.3606 1095.9511,237.6486 1084.3911,246.1296 C1082.1051,247.8056 1080.1851,249.9786 1078.0971,251.9226 C1071.4951,257.2576 1064.4991,262.2016 1057.8261,267.5496 C1056.3931,268.6986 1055.5431,271.2696 1055.4341,273.2416 C1055.1481,278.3866 1055.2571,283.5716 1055.5581,288.7206 C1055.6741,290.7076 1056.7321,292.6386 1057.3951,294.6986 C1067.7621,294.6986 1077.4061,294.7586 1087.0481,294.6306 C1088.4361,294.6126 1090.0131,293.9606 1091.1611,293.1296 C1096.1851,289.4936 1101.0941,285.6946 1106.0281,281.9336 C1114.2761,275.6476 1122.5371,269.3776 1130.7481,263.0416 C1138.2071,257.2866 1145.5191,251.3416 1153.0581,245.6936 C1159.0881,241.1746 1165.4171,237.0566 1171.5091,232.6176 C1180.3891,226.1466 1189.1741,219.5456 1198.0001,212.9996 L1198.0001,355.9996 C1188.0141,361.0086 1177.9751,365.9146 1168.0561,371.0526 C1155.5571,377.5256 1143.2141,384.3016 1130.6931,390.7336 C1121.1821,395.6196 1111.4911,400.1576 1101.8931,404.8786 C1092.2671,409.6146 1082.6041,414.2836 1073.0601,419.1796 C1067.1061,422.2336 1061.3401,425.6526 1055.6921,428.7956 L1055.6921,443.6826 C1058.3361,444.0686 1060.8761,444.7146 1063.4261,444.7586 C1071.9111,444.9056 1080.4471,444.2766 1088.8751,444.9976 C1098.2431,445.7996 1105.9471,442.0036 1113.7401,437.9986 C1127.4101,430.9716 1141.0241,423.8366 1154.6791,416.7796 C1162.7701,412.5976 1170.8761,408.4406 1179.0121,404.3446 C1185.3121,401.1716 1191.6691,398.1106 1198.0001,394.9996 L1198.0001,540.9996 C1187.7861,544.2336 1177.6611,547.7916 1167.3331,550.6066 C1157.4111,553.3106 1147.2041,554.9606 1137.2581,557.5886 C1124.5121,560.9556 1111.9231,564.9176 1099.2221,568.4636 C1093.2031,570.1446 1087.0811,571.4556 1080.2251,573.1236 C1079.8871,573.4296 1078.9191,574.3036 1077.9511,575.1776 C1077.8691,574.9406 1077.7861,574.7036 1077.7031,574.4676 C1070.5731,576.2116 1063.4431,577.9566 1055.9531,579.7896 L1055.9531,597.0286 C1058.4641,597.3906 1060.5331,597.9006 1062.6141,597.9486 C1067.2661,598.0536 1071.9241,597.8516 1076.5771,597.9126 C1093.6201,598.1386 1110.6311,598.8176 1127.1541,592.9196 C1135.1791,590.0546 1143.6751,588.5286 1151.9211,586.2636 C1155.5741,585.2616 1159.0881,583.7396 1162.7541,582.7956 C1167.8521,581.4846 1173.0641,580.6176 1178.1721,579.3376 C1184.8101,577.6736 1191.3931,575.7896 1198.0001,573.9996 L1198.0001,745.9996 C1191.7451,742.7886 1185.5331,739.4906 1179.2181,736.4016 C1175.4451,734.5566 1171.3931,733.2696 1167.6741,731.3306 C1158.5061,726.5526 1149.5291,721.4056 1140.3421,716.6656 C1131.2051,711.9526 1121.8301,707.7006 1112.6931,702.9846 C1101.9241,697.4256 1091.3121,691.5606 1080.5961,685.8966 C1078.7571,684.9246 1076.6861,684.3986 1074.8121,683.4836 C1068.7661,680.5306 1062.7601,677.4916 1055.0771,673.6556 L1055.0771,733.0106 C1044.8571,729.3206 1036.2501,726.0466 1027.5321,723.1006 C1011.9241,717.8256 996.2591,712.7166 980.5991,707.5956 C967.7581,703.3966 954.8751,699.3276 942.0411,695.1086 C934.0241,692.4726 926.1381,689.4156 918.0501,687.0296 C913.5131,685.6906 908.6851,685.3316 903.9231,684.5216 C903.5271,686.7536 903.2601,687.5596 903.2601,688.3656 C903.2541,708.4956 903.2681,728.6266 903.3021,748.7586 C903.3091,752.3136 904.9571,754.4316 908.7081,754.5046 C910.7061,754.5436 912.7061,754.5646 914.7051,754.5646 C993.5021,754.5676 1072.2991,754.5426 1151.0961,754.5856 C1166.7301,754.5936 1182.3651,754.8556 1198.0001,754.9996 L1198.0001,863.9996 C1196.5981,863.5036 1195.1091,863.1706 1193.8071,862.4856 C1184.6331,857.6596 1175.4801,852.7946 1166.3551,847.8786 C1153.7821,841.1056 1141.2691,834.2196 1128.6741,827.4876 C1119.8211,822.7556 1110.8551,818.2366 1101.9741,813.5586 C1087.6811,806.0326 1073.4251,798.4356 1059.1161,790.9416 C1058.2311,790.4786 1057.0181,790.6436 1055.3711,790.4456 L1055.3711,858.0746 C1061.7411,861.5376 1068.0641,865.0576 1074.4611,868.4376 C1089.0311,876.1336 1103.6621,883.7166 1118.2161,891.4466 C1122.4081,893.6726 1126.2411,896.6436 1130.5581,898.5506 C1136.2111,901.0476 1142.1031,904.3296 1148.0281,904.6316 C1164.6481,905.4806 1181.3381,904.9726 1198.0001,904.9996 L1198.0001,1014.9996 C1192.2051,1010.9256 1186.3541,1006.9296 1180.6281,1002.7616 C1167.4091,993.1416 1154.2421,983.4506 1141.0741,973.7616 C1137.9101,971.4336 1134.8221,969.0036 1131.6991,966.6196 C1131.7401,966.5526 1131.7811,966.4866 1131.8231,966.4186 C1115.3721,954.2346 1098.9221,942.0506 1080.6261,928.4996 C1074.0901,923.9926 1066.9961,916.2266 1056.1871,913.0846 C1055.7531,915.2016 1055.3301,916.3066 1055.3271,917.4116 C1055.2771,936.0696 1055.1671,954.7296 1055.4311,973.3836 C1055.4591,975.3826 1057.3211,977.8606 1059.0391,979.2296 C1063.1051,982.4696 1067.6601,985.0866 1071.9021,988.1176 C1080.4771,994.2446 1088.9451,1000.5186 1097.5111,1006.6586 C1106.5521,1013.1396 1115.7891,1019.3556 1124.6931,1026.0166 C1135.0871,1033.7926 1145.1661,1041.9886 1155.4981,1049.8486 C1157.4071,1051.3006 1159.8301,1052.8366 1162.0841,1052.9486 C1174.0441,1053.5426 1186.0261,1053.6956 1198.0001,1053.9996 L1198.0001,1157.9996 C1192.0281,1152.7366 1186.0581,1147.4726 1180.0861,1142.2076 C1178.2941,1139.8826 1176.3241,1137.6936 1174.2531,1135.6046 C1170.5451,1131.8626 1166.7091,1128.2446 1163.0471,1124.4596 C1158.1021,1119.3476 1153.4651,1113.9256 1148.3521,1108.9916 C1137.5071,1098.5266 1126.3131,1088.4206 1115.5111,1077.9116 C1108.7921,1071.3756 1102.3721,1064.5116 1096.1101,1057.5326 C1091.9421,1052.8856 1086.9361,1051.8006 1081.0331,1052.0116 C1072.9571,1052.3006 1064.8631,1052.0836 1055.7761,1052.0836 C1055.5191,1052.9206 1054.6061,1054.5216 1054.6171,1056.1166 C1054.6521,1061.5936 1055.9461,1067.2276 1055.0511,1072.5126 C1053.1981,1083.4556 1057.7211,1090.9576 1065.9401,1097.1326 C1066.6031,1097.6316 1067.2331,1098.1886 1067.8161,1098.7796 C1072.7201,1103.7556 1077.6091,1108.7456 1082.5031,1113.7316 C1082.4711,1113.7646 1082.4381,1113.7976 1082.4071,1113.8296 C1086.8761,1118.3256 1091.3451,1122.8196 1095.8131,1127.3146 C1097.0801,1128.7866 1098.9881,1129.7226 1100.4401,1131.1286 C1106.4381,1136.9386 1112.3001,1142.8886 1118.2111,1148.7886 C1121.8681,1152.4396 1125.6091,1156.0116 1129.1601,1159.7636 C1134.3681,1165.2656 1139.3411,1170.9916 1144.5971,1176.4466 C1149.8121,1181.8586 1155.3071,1187.0026 1160.5491,1192.3926 C1161.3851,1193.2526 1161.5331,1194.7816 1162.0001,1195.9996 L1035.0001,1195.9996 C1034.7981,1194.6046 1035.0551,1192.8766 1034.3231,1191.8626 C1025.1741,1179.1706 1016.0171,1166.4786 1006.5861,1153.9946 C996.5181,1140.6686 986.1431,1127.5746 975.9271,1114.3596 C968.0291,1104.1436 960.1121,1093.9416 952.3111,1083.6516 C944.9261,1073.9096 937.6811,1064.0626 929.4191,1052.9806 C923.0811,1052.5826 914.8211,1052.0646 906.7311,1051.5576 C902.9711,1054.6776 901.6571,1077.3216 904.2111,1087.9216 C913.5851,1100.2136 922.5061,1111.9116 931.4281,1123.6116 C931.5921,1123.4886 931.7571,1123.3656 931.9211,1123.2416 C932.2811,1124.6746 932.6411,1126.1076 933.0011,1127.5406 C936.7351,1130.9626 939.8011,1134.8246 942.8921,1138.6636 C947.5131,1144.4056 952.2691,1150.0416 956.7541,1155.8866 C962.4541,1163.3166 968.1091,1170.7916 973.4601,1178.4736 C977.3531,1184.0616 983.1851,1188.5456 984.0001,1195.9996 L842.0001,1195.9996 C839.4161,1190.4086 836.8321,1184.8156 834.2491,1179.2236 C834.1481,1179.2836 834.0481,1179.3446 833.9461,1179.4056 C812.6091,1137.6906 791.2711,1095.9756 769.7681,1053.9386 C768.1111,1053.3086 766.1381,1052.3936 764.0721,1051.8016 C756.4701,1049.6236 751.4401,1053.3966 751.3841,1061.2586 C751.3251,1069.4126 751.7291,1077.5976 751.1481,1085.7136 C750.6481,1092.7036 752.9191,1098.6246 756.0101,1104.5256 C760.8801,1113.8206 765.7561,1123.1136 770.4921,1132.4776 C775.8551,1143.0806 780.9641,1153.8146 786.3731,1164.3946 C791.7931,1174.9916 797.4481,1185.4696 803.0001,1195.9996 L655.0001,1195.9996 C654.7801,1193.8566 654.8311,1191.6406 654.2911,1189.5806 C652.1421,1181.3756 649.7981,1173.2216 647.5471,1165.0426 C646.5801,1161.5326 646.0071,1157.8686 644.6591,1154.5146 C641.4061,1146.4136 638.7541,1138.2536 639.2631,1131.7006 C629.3571,1104.1786 625.5031,1077.0176 616.1071,1051.6636 C609.9721,1052.2676 605.0571,1052.7496 599.8541,1053.2616 C599.5721,1055.7196 599.1641,1057.6646 599.1551,1059.6126 C599.1041,1070.0986 598.9231,1080.5926 599.2481,1091.0696 C599.4741,1098.3456 600.2841,1105.6176 601.1621,1112.8526 C601.4911,1115.5606 602.8601,1118.1266 603.5621,1120.8086 C605.1861,1127.0136 606.6141,1133.2696 608.2661,1139.4676 C610.8181,1149.0496 613.5521,1158.5836 616.0921,1168.1696 C617.6081,1173.8956 618.9971,1179.6586 620.2621,1185.4456 C621.0211,1188.9236 621.4331,1192.4796 622.0001,1195.9996 L451.0001,1195.9996 C451.3101,1194.5476 451.3371,1192.9556 451.9751,1191.6646 C457.5451,1180.3896 463.1651,1169.1376 468.8881,1157.9386 C474.5221,1146.9106 480.3661,1135.9916 485.9711,1124.9506 C488.4201,1120.1266 490.2851,1115.0036 492.7911,1110.2126 C498.7691,1098.7846 505.0481,1087.5146 511.0501,1076.0986 C513.9531,1070.5756 516.5061,1064.8696 519.6761,1058.2976 C519.7701,1056.9446 519.9431,1054.4986 520.1521,1051.5346 C517.9761,1051.3646 516.0431,1051.0846 514.1091,1051.0806 C499.6131,1051.0526 485.1161,1051.1206 470.6201,1051.0396 C468.5421,1051.0286 466.4671,1050.3776 464.5351,1050.0476 C480.9761,1000.1436 497.0651,951.3046 513.0871,902.6726 C508.5001,899.0746 447.1741,898.6396 441.8301,902.2696 C441.8301,917.0766 441.7611,932.3736 441.8461,947.6716 C441.9661,969.1616 442.3591,990.6526 442.3431,1012.1416 C442.3221,1038.6126 441.9341,1065.0826 441.8371,1091.5536 C441.7921,1104.0456 442.1511,1116.5386 442.1591,1129.0316 C442.1731,1151.3546 442.0601,1173.6776 442.0001,1195.9996 L332.0001,1195.9996 C334.3021,1190.3136 336.6041,1184.6276 338.8221,1179.1496 C340.1301,1178.0556 341.6751,1177.3366 342.3101,1176.1356 C345.4421,1170.2156 348.2921,1164.1466 351.3191,1158.1686 C355.9961,1148.9326 360.6851,1139.7016 365.4631,1130.5176 C371.7891,1118.3566 378.2301,1106.2556 384.5701,1094.1016 C387.9361,1087.6496 391.1191,1081.0996 394.5191,1074.6656 C397.9671,1068.1446 401.6071,1061.7266 405.0871,1055.2226 C405.5121,1054.4306 405.4691,1053.3876 405.7631,1051.8186 C403.8651,1051.6056 402.3021,1051.2836 400.7371,1051.2776 C385.0821,1051.2136 369.3951,1051.7966 353.7831,1050.9676 C343.4791,1050.4206 335.4011,1051.5556 332.7551,1063.1996 C332.6911,1063.4786 332.2551,1063.6526 332.0991,1063.9346 C328.4051,1070.6186 324.6561,1077.2746 321.0691,1084.0156 C318.4471,1088.9436 316.0921,1094.0106 313.5291,1098.9696 C308.7331,1108.2476 303.8731,1117.4926 299.0341,1126.7606 C292.7451,1131.4066 291.8041,1138.8256 291.4991,1145.5626 C290.7421,1162.3486 291.0941,1179.1846 291.0001,1195.9996 Z" id="Fill-1" fill="#000000" mask="url(#mask-2)"></path>
        </g>
    </g>
</svg>